<?xml version="1.0" encoding="UTF-8"?><svg id="Layer_2" xmlns="http://www.w3.org/2000/svg" viewBox="0 0 372.75 426.71"><g id="Layer_1-2"><path d="M7.54,32.45c-7.41-.28-9.45.44-5.71-7.63,4.27-.36,6.42,3.64,5.71,7.63Z"/><path d="M273.42,10.37l-2.86-3.35c.04-3.73,9.47-.77,11.49.02,5.35,2.08,22.41,12,26.41,15.83,5.8,5.54,1.71,10.22,3.83,14.41.99,1.95,3.93,1.69,5.81,2.83,1.24.75,15.06,20.41,16.93,23.39,4.44,7.09,7.91,16.15,11.86,23.65l1.88.98c7.85-8.77,17.73,4.52,20.83,11.83,3.76,8.86,4.68,14.57.03,23.41-4.12,7.84-18.67,15.02-27.02,11.25-1.79-.81-2.67-4.4-4.71-.75.49,7.61.47,15.27.81,22.89,1.27,28.56,8.42,55.97,5.75,84.47-.32,3.39-3.99,22.82-5.7,24.08l-14.44-.56c-.72.5-.08,7.79.01,9.12.67,9.26,2.75,19.6,2.93,28.79.08,4.07-.96,8.83-3.45,12.03l-.79-.13c-2.44-2.87-5.77-1.17-8.61-1.97-1.59-.45-2.14-2.79-4-2.7-2.02.47-3.94,11.97-8.74,7.77-4.51-3.94-6.13-41.27-7.12-49.04-1.78-.29-2.07-.04-3.28,1.03-7.42,6.53-10.75,12.13-14.71,21.77-14.91,36.29-11.81,62.52-8.87,100.55.37,4.84,4.09,23.57,2.41,26.42-2.55,2.14-17.78,3.75-19.75,2.44l-1.86-23.57c-2.26-.62-1.62.59-2.18,1.23-2.32,2.63-6.1,7.7-8.43,9.75-5.93,5.22-15.6,7.81-21.99,12.62-3.39,1.5-18.47-4.41-19.13-6.97-.85-3.34,6.44-5.94,9.01-8.01,26.57-21.44,16.57-60.24,17.74-89.78.85-21.35,5.05-43.77,19.15-60.42-.67-.98-1.42-1.71-2.56-2.15-4.72-1.82-21.28-2.67-26.53-2.07-16.73,1.91-32.09,28.47-37.74,42.89s-12.81,43.35-10.83,58.28c1.51,11.43,7.92,23.59,10.32,34.79,2.24,10.45.21,22.19,1.19,32.88-3.4.43-6.64-1.56-10.05-.97-2.32.4-3.31,3.23-4.82,2.88-3.19-1.93-2.49-19.24-4.81-19.18-2.02,1.77-2.36,4.59-3.9,6.64-8.94,11.97-22.63,9.15-34.94,15.94-3.79-1.23-10.54,1.81-13.51.98-2.4-.67-10.62-6.39-9.14-9.21s14.08-3.14,17.83-4.28c8.19-2.5,12.94-9.59,16.79-16.8,7.1-13.27,10.36-29.84,10.04-44.64-.43-20.14-7.33-39.16-4.67-59.42,3.42-26.1,9.9-45.4,30.12-62.99,1.36-1.18,3.68-1.42,4.34-2.61.8-1.45,2.77-21.13,2.95-24.73.15-3.16-1.81-6.71-.03-10.52l-.04-22.6c-7.6-.25-14.13,3.55-21.76,3.49-6.48-.05-12.96-2.63-19.95-1.52-4.4.7-7.13,6.23-12.39,4.8-1.93-4.39-9.93-27.93-13.58-28.84-4.08-1.02-1.99,13.34-10.51,12.51-3.98-.39-3.69-4.68-4.9-6.68-1.33-2.21-3.73-3.04-4.06-6.53-.5-5.26,6.6-13.13,7.49-8.39.47,2.51-5.13,4.15-3.91,9.44l3.79,1.7c-1.14,7.1,4.53,10.87,6.44,2.75.43-1.82-.49-3.07-.28-4.15.22-1.18,1.84-1.75,1.5-3.78-.1-.58-1.45-5.79-1.66-6.02-1.27-1.43-6.39-2.11-5.84-4.66,9.24-6.32,15.3-14.52,22.5-22.66,2.72-3.07,6.72-5.97,9.14-9.1,1.3-1.69,1.52-4.44,3.83-5.77.99-2.2-3.51-1.5-4.31-1.42-2.42.24-14.26,2.96-15.6,4.07-.67.56-.89,2.52-1.71,3.55-3.93,5-10.36,4.66-13.74-.63.58-4.61,2.33-10.08,5.1-13.75,11.39-15.09,30.75-26.72,45.54-37.97,14.63-11.13,37.15-32.14,54.74-36.45,3.34-.82,9.72.42,9.72-4.66,0-.94-3.49-.94-2.95-2.95,5.91-5.84,13.65.53,20.58-.53,2.69-.41,4.02-2.42,6.3-3.31,9.04-3.54,11.67,1.21,19.17,3.86,2.95,1.04,6.6.87,10.16,2.32,1.72.7,2.8,2.39,3.98,2.74,2.35.71,5.47-.05,7.97.18ZM244.62,5.6c-3.3-1.71-16.33-1.44-10.12,3.89,1.87,1.61,6.59-2.56,10.13-1.03v-2.85ZM249.42,10.37c.24-2.42-1.53-3.24-3.83-2.87-.24,2.42,1.53,3.24,3.83,2.87ZM262.85,22.85c-6.61.31-10.16-7.56-16.83-7.72-2.25-.05-4.32,1-6.64,1.05-18.61.4-33.9-3.19-50.73,5.9-15.64,8.45-30.81,22.04-44.9,32.85-11.04,8.48-23.96,15.77-33.05,26.46-3.41,4-7.91,8.32-1.92,12.26,10.89-5.39,23.67-4.47,35.27-6.74,5.26-1.03,11.07-3.66,16.67-4.45,14.78-2.07,49.17-3.19,62.81.35,2.15.56,12.67,5.1,13.94,6.21,1.73,1.51,2.41,6.74-.05,5.81-3.82-1.67-10.83-6.96-14.46-7.62-21.89-4-51.97-2.96-73.64,2.09-2.29.53-4.75,2.49-7.35,2.73,1.93,6.57-.94,5.98-3.75,10.17-1.21,1.81-1.92,4.17-3.04,5.6-5.13,6.62-13.37,12.86-18.11,20.29,3.26,8.36,9.9,13.95,15.82,20.3,12.61-3.75,26.36-2.49,38.6-7.62-.74-9.34,1.27-18.94,1.09-28.15-.12-6.49-2.78-16.04-2.53-21.96.16-3.83,3.91-3.45,4.48-.14-.32,6.59,1.71,13.67,1.95,20.12.35,8.99-2.59,18.87-.99,27.87.39,2.2,2.46,2.66,2.88,4.8.57,2.88-1.92.29-2.9.93-2.13,1.39-.07,4.68,0,6.77.18,4.74.55,9.92.61,14.56.03,2.23-2.09,14.68.83,14.7,3.22-3.45,3.95-6.88,9.57-6.75,6.23.14,4.53,4.93,7.71,8.69,1.99.47,3.54-5.48,9.4-3.66,1.68.52,2.55,3.39,4.94,2.68,1.69-3.66,3.78-5.37,6.32-8.16,1.51-1.66,1.41-5.32,3.76.04l1.47.44c2.01-.44,11.61-15.69,13.15-18.54,4.66-8.64,7.07-18.47,11.18-27.22,1.97-4.21,8.97-13.64,9.58-16.34.67-2.97-.16-6.27.29-9.3.42-2.8,3.45-10.44,2.33-12.11-1.03-1.54-3.21.55-2.2-5.01.69-3.77,10.99-32.16,12.7-33.43,2.98-2.21,3.77.19,4.34-6.18.51-5.65-.33-11.7-2.12-17.06-.65-1.96-4.73-11.17-7.47-9.82l.96,4.32ZM272.45,23.82c.25-1.79,0-3.33-1.9-3.84-.25,1.79,0,3.33,1.9,3.84ZM291.66,36.3c-.08,2.4-1.95,3.57-1.96,6.2,0,1.65.96,9.72,3.38,9.15,5.18-4.58,1.77-6.98,1.46-11.14-.16-2.21,1.11-3.72.55-6.13-.45-1.95-7.08-10.83-8.73-11.51-2.23-.93-1.61,4.49-1.46,5.09.26,1.01,2.33.86,2.77,2.21.5,1.53-.33,4.02.55,5.25l3.43.89ZM304.9,34.56l-6.05-4.98c-.74-.15-.59.89-.46,1.41.58,2.28,3.56,9.35,4.74,11.58.72,1.36.84,2.75,2.92,2.35l-1.15-10.37ZM280.13,46.85c-.91-.65,2.63-6.89-.95-6.25-3.35,10-3.32,21.5-8.37,30.99l-1.22,6.93c2.46.55,1.67-.67,2.47-1.81,4.25-5.98,8.11-15.23,10.46-22.21.83-2.46,1.51-5.03,1.47-7.66h-3.85ZM314.68,115.01l2.88-26.4c-2.44-12.67,3.57-22.82-.49-35.02-.42-1.26-4.24-9.59-4.78-9.6-1.67,1.16-1.55,2.46-1.47,4.27.83,19,3.76,40.72,2.91,59.54-.09,2.1-2.93,7.91.96,7.21ZM304.13,100.13c.47-4.4-.34-9.44,0-13.92-1.78-.33-2.39.83-3.09,2.19-1.85,3.63-3.83,12.8-4.89,17.18-4.29,17.64-6.66,35.41-8.76,53.13-.17,1.41-3.94,6.26-3.43,9.08l-2.9-.44c-2.3-1.55,2.18-15.05,2.65-18.54.23-1.68.41-3.32.26-5.02-2.5,1.1-3.51,4.08-4.65,6.38-1.55,3.11-4.43,13.44-5.44,14.72-1.3,1.65-2.98.81-3.31-.54-.41-1.66,4.95-14.4,6.19-16.74,2.31-4.33,7.77-9.35,9.21-12.87,6.08-14.86,3.5-34.31,12.83-51.48,1.45-2.66,4.51-4.67,5.12-7.35.71-3.11-1.11-19.07-2.24-22.32-.4-1.17-2.01-2.8-2.84-3.86-.59,0-5.13,6.91-5.53,7.97-1.23,3.24,1.72,9.08,1.82,12.8.13,4.44-2.38,14.08-4.27,18.27-1.7,3.77-7.23,10.02-7.83,13.29-1.5,8.28,1.31,17.1-1.48,26.36-1.88,6.26-6.84,11.9-8.85,17.07-1.59,4.08-2.14,10.48-3.42,14.82-.52,1.77-3.11,9.99-3.65,10.75-1.7,2.41-3.99,1.25-6.56,1.6l-4.92,11.94.46,1.48c2.81,1.11,5.5,2.69,7.27,5.21,1.96,2.77,1.81,7.59,6.13,6.14,1.09-.36,1.33-2.08,2.27-2.78,7.56-5.69,8.45,2.75,14.19,3.81,2.39.44,7.41.57,8.61-1.87l.6-32.05,4.19-1.5c3.22-9.23,5.02-18.96,8.4-28.13.77-2.09,2.57-7.41,3.69-8.8,1.32-1.64,3.19-1.24,3.83-2.13,1.29-1.78.79-5.81.87-8.03l-3.34,3.79-2.4-.93c.63-8.91,3.2-17.98.93-26.86-3.05,1.46-1.65,5.86-2.17,8.86-1.96,11.16-8.3,22.71-9.94,32.41-.37,2.17,1.26,2.71,1.56,4.39.49,2.81-5.59,21.43-7.02,25.55-2.95,8.47-7.02,16.68-10.19,25.07-2.59,2.65-4.49,1.15-3.9-2.64.27-1.75,3.9-7.01,4.96-9.47,2.21-5.13,13.08-35.15,12.33-38.41-.17-.74-1.84-.54-1.98-1.25-.62-3.19,9.8-28.96,10.59-36.34ZM323.32,55.49h-1.91c2.67,10.6,3.62,22.2,2.83,33.13-.45,6.2-2.56,10.38-1.78,17.17.87,7.47,2.18,10.75.62,19.05-1.6,8.53-4.94,9.7-7.5,15.54-1.62,3.69-5.55,24.31-6.6,25.08l-2.93.42c-2.33-2.34,8.35-28.4,6.71-33.59-1.68.53-2.41,2.67-3.05,4.14-3.84,8.83-8.6,26.43-10.9,36.13-2.98,12.59-1.56,32.95-1.35,46.64.35,22.49,1.61,45.55,3.79,68.12.37,3.82.18,20.94,3.37,22.55,1.62.81,1.85-1.68,2.1-2.66.64-2.52,1.45-14.02,2.22-14.61,1.58-1.21,1.65.41,2.14,1.23,1.83,3.09,2.69,12.95,5.06,14.12,1.49.74,1.65-1.02,1.9-1.89.65-2.18.27-5.3,1.38-7.05.52-.82,2.07-.96,2.47-1.59,1.08-1.73-1.19-10.99-1.44-13.94-1.95-22.49-3.43-45.44-4.79-68.16-.34-5.69-.73-13.79-.62-19.36.14-6.91,6.48-10.34,12.09-6.51,3.05,2.08,1.93,5.13,3,7.36.38.79,1.38.85,1.73,1.54.7,1.38,4.14,10.68,6.38,6.92.55-11.55-3.71-23.31-4.14-35.08,1.35-21.99-3.41-46.12-1.17-68.14.2-2,.65-4.16,1.88-5.8,3.78-2.53,9.22,3.92,10.6,2.44.01-1.09.12-2.21-.05-3.3-.58-3.67-10.46-22.94-12.9-27.46-.73-1.35.08-2.36-2.4-1.87,3.04,11.56,2.02,22.39-1.93,33.59l-2.42-.95c5.14-14.82,2.08-28.67-2.38-43.2ZM284.94,60.29c2.42.24,3.24-1.53,2.87-3.84l-2.86,2.41v1.42ZM286.87,64.14c-1.35,3.39-3.04,6.51-3.77,10.16-.78,3.89-2.04,13.37-2.08,17.19-.02,1.78-.13,3.17,1.52,4.31,3.56-4.84,6.43-11.88,7.1-17.84.18-1.62,1.1-16.59-2.77-13.82ZM266.6,70.77l1.06-3.26-1.44-1.44-2.39,3.36v1.42s2.77-.08,2.77-.08ZM353.07,91.02l-2.86-.02.81,16.66c-1.04,3.17-4.13-.5-5.59,2.05,1.8,3.86,3.71,11.72,9.59,8.67,3.03-1.57,5.57-15.9,4.05-19.45-1.6-3.74-6.59-4.06-6-7.91ZM342.52,107.33c-1.81-2.05-4.16,5.64-4.36,6.67-1.93,10.26.54,17.73,12.28,16.11,18.24-2.52,24.25-22.59,11.75-35.26-2.44-.19-1.09.33-.7,1.67.63,2.18,2.16,4.18,2.19,6.45.07,6.08-6.68,27.15-14.95,18.79-3.48-3.52-7.06-9.31-6.2-14.43ZM273.43,105.41c2.33-.84,2.96-3.4,3.66-5.46.54-1.57,1.92-1.56-.31-3.16-2.15,2.3-3.63,5.41-3.35,8.62ZM112.8,127.16c3.95-4,7.73-9.6,11.46-13.97.66-.78,7.32-5.6,2.76-6.82-4-1.07-14.39,14.05-17.35,17.19-2.06,2.18-9.88,6.92-9.03,10.16.3,1.13,1.91,1.66,3.2,1.31.57-.16,7.93-6.83,8.95-7.86ZM264.77,113.08l-.47-5.75c-1.85,1.36-1.51,3.7-1.44,5.75h1.91ZM272.47,137.08c5.97-6.88,7.24-20.14,5.74-28.79-1.69.29-1.68,1.93-2.05,3.21-2.33,7.94-3.15,17.32-3.69,25.58ZM262,126.63c.41,3.94-4.42,10.26-4.71,13.02-.15,1.44,1.49,3.01,1.73,4.72s-1.6,5.74.49,6.15,6.26-7.63,6.95-9.35c2.8-6.91,2.2-13.52,3.32-20.68.44-2.83,3.02-6.31,1.7-10.29-7.66,4.7,2.79,17.3-9.49,16.42ZM320.44,115.01c-1.38-1.62-1.7.12-1.89,1.44-.62,4.22-1.03,8.67-.98,12.95,2.73.45,1.61-.55,2.04-2.23,1.06-4.14.94-7.92.83-12.16ZM114.94,132.39c-2.37-1.58-6.51,4.92-9.05,5.63l-.5,1.45,16.95,30.2c3.18-.99,5.06-3.21,8.63-3.71,7.44-1.04,15.09,2.04,21.95,1.88,1.65-.04,18.8-3.39,19.51-4.09,1.82-1.82.64-16.69-.68-17.62l-41.65,7.17c-1.76-.56-4.01-6.3-5.42-8.08-.85-1.08-2.61-1.53-3.72-3-2.19-2.88-4.37-6.58-6-9.83ZM255.17,145.73c-5.2-.36-7.54,14.22-5.75,16.31,1.72.38,1.89-.51,2.72-1.59,2.64-3.43,3.05-10.42,3.03-14.72ZM241.74,150.53c-1.98-.41-2.22.96-3.06,2.21-5.67,8.41-8.7,19.97-18.01,26.2l2.87,3.78c2.18,1.11,7.09-2.1,8.48-4.02s10.73-27.07,9.73-28.18ZM261.89,154.37c-3.57-.02-3.8,5.13-3.83,7.67,1.85,2.22,4.23-6.73,3.83-7.67ZM254.21,163.96c-4.94,1.55-5.25,8.79-7.6,11.1-1.54,1.52-3.6,1.2-5.38,2.3-1.66,1.02-3.46,4.04-5.23,5.32,3.73,1.84,7.44,12.67,10.96,7.14,1.01-1.58,1.07-3.85,2.04-5.64.8-1.47,2.48-2.14,3.37-4.31,1.89-4.59,1.91-11,1.84-15.91ZM263.82,164.93h-1.91s0,1.91,0,1.91l1.91-1.91ZM237.91,173.56c1.37,1.53,4.36-1.86,4.77-3.36-2.13-3.45-5.78,2.23-4.77,3.36ZM182.51,177.7c-.71.6-2.52,3.31-1.79,4.48,2.63,1.99,10.34,9.23,10.1,2.55-.15-4.33-3.62-10.95-8.31-7.03ZM216.78,178.36h-2.87c-1.06,5.9,4.17,1.22,2.87,0ZM200.18,182.34c-1.08.32-5.66,4.86-5.42,5.99.48,2.29,9.15,3.88,10.87,3.4,3.3-.92-1.56-9-2.9-9.44-.85-.28-1.7-.2-2.55.05ZM208.15,192.75c2.37.46,16.13,3.65,16.29.5-2.76-2.92-1.12-9.28-6.22-9.22-4.3.05-7.86,5.65-10.08,8.72ZM182.02,187.2c-.57-1.01-5.88-3.56-6.36-.53l-1.1,32c7.85-2.44,14.4,2.08,21.47,4.75,3.55-4.52,3.35-10.3,11.04-8.47.13,6.86,5.13,5.49,6.67,6.76,2.64,2.16-.03,19.91-4.14,19.03-1.16-.25-1.53-1.88-1.28-3.15.33-1.65,4.54-10.39,3.67-11.24l-5.75,1.92v-9.61s-3.94.57-3.94.57l-2.82,8.52c4.9,5.85,5.55,12.41,6.79,19.69,6.74-.88,13.77-1.47,20.6-.93,5.12.41,14.14,3.73,18.14,3.55,2.74-.13,4.25-4.79,6.3-6.95,6.77-7.12,24.39-14.39,34.06-13.84,1.29.07,3.96,1.24,4.32,2.49l-.42,5.15c7.47-3.08,3.26-12.04,3.26-17.75,0-2.65,2.94-16.27-.35-16.58-3.2,1.19-6.96.22-8.16,4.11l-1.47.47c-.97-.26-.98-2.65-2.1-2.91-1.42-.33-8.3-.83-10.38-.95-13.52-.74-27.55-3.86-41.27-3.91-1.99,0-3.75,1-5.66.96-5.45-.09-19.14-5.45-23.19-2.84-3.37,2.17-7.5,8.06-9.54,11.55-1.24.02-6.04-10.53-6.7-12.48-.84-2.52-1.21-8.56-1.67-9.38ZM232.82,187.13c-2.73.73-10.74,7.73-3.13,8.56,2.38.26,10.6,1.16,10.84-1.48-.89-2.91-4.19-8.02-7.71-7.08ZM260.93,197.55c-.29-6.84-11.31-11.19-13.39-3.3-.52,2,.85,1.23,2.07,1.63,3.65,1.19,7.44,2.04,11.32,1.67ZM195.67,194.69l-8.63-2.89c-.39,3.41.49,6.63,3.46,8.59,1.34.28,6-4.57,5.17-5.7ZM326.2,198.51c.29-4.96-1.58-7.61-6.71-6.71-.93,4.09,3.01,6.57,6.71,6.71ZM276.29,196.6h-3.83s0,2.87,0,2.87c2.3.36,4.07-.45,3.83-2.87ZM339.65,215.8l-8.69-.4c-2.58-4.56-3.64-8.82-2.29-14.02-.68-.91-7.37-2.35-8.22-.46v18.24c0,4.67,6.64,5.27,10.14,6.18l5.21-4.74c1.8,4.85-2.8,7.91.91,12.84l2.94.59v-18.24ZM179.98,221.67l-3.5,2.29c1.5,5.72,9.77.3,3.5-2.29ZM198.55,250.35l2.9-.46.84-1.05c-.82-10.24-4.37-20.5-14.68-24.34-3.12,2.28-3.2,6.31.06,8.5,9.68-2.16,4.08,2.47,5.53,7.83.73,2.7,2.89,2.39,5.26,2.9l.09,6.62ZM157.26,394.34c2.56,6.53,3.98,13.2,4.27,20.22.87,1.3,6.94,1.19,8.68.88,5.57-1,1.65-9.82,3.3-13.79,1.26-17.48-9.64-33.72-11.42-50.03-2.68-24.58,9.39-63.41,23.18-84.31,4.54-6.88,12.85-9.68,8.96-18.87-2.37-5.6-8.03-13.3-12.45-17.3-.73-.66-6.12-3.83-6.76-3.84-2.5.08-2.81,3.02-4.36,4.29-16.37,13.4-25.31,23.66-29.47,45.4-3.64,19.06-2.76,30.33-.46,48.95,3.42,27.7,4.63,48.24-8.24,73.85-5.4,10.74-9.42,15.58-21.87,17.48-3.34.51-9.64-1.31-7.56,3.95,3.79-.17,7.63.29,11.4-.12,4.57-.49,22.65-5.12,26.74-6.85,3.12-1.32,5.6-4.39,8.43-6.24l7.65-13.67ZM326.2,229.24c3.28,16.13,10.15,2.18,5.81-.53-1.46-.91-9.94-2.43-10.53.16l.89,31.08c3.08-.61,13.23,1.5,14.25-1.6.46-1.39,2.98-15.26,2.82-16.06-1.07-5.68-8.3-.76-10.87-2.44-2.76-1.8-8.72-10.12-2.37-10.62ZM277.26,235.95c-8.85-.83-8.16,3.09-2.4,7.67,2.84-1.88,2.59-4.55,2.4-7.67ZM265.73,238.84c-3.33-.49-11.4,4.77-10.55,8.14,1.42,5.63,12.09-6.62,10.55-8.14ZM247.51,385.7c2.33-1.77,3.59,5.22,3.72,6.34.47,4.09-.2,8.27.11,12.37.16,2.05.94,9.95,1.44,11.04,1.39,3.06,12.69.38,13.51-2.85-.97-9.42-.93-18.9-1.51-28.35-1.27-20.65-4.21-40.4-1.82-61.33,1.6-13.96,13.47-46.27,23.44-56.23,1.66-1.66,6.91-2.96,7.95-6.45.58-1.96.61-16.64.2-19.02-.19-1.13-.53-1.7-1.45-2.37-4.13,5.03-6.78,1.09-11.44,0-1.98.56-2.24,8.72-5.98,9.43l-7.55-4.71c-3.15-.03-4.46,9.54-11.43,8.7-2.33-.28-3.77-2.72-6.29-1.48-2.82,1.4-2.68,5.03-4.19,7.39-2.78,4.33-6.77,8.22-9.3,12.77-22.88,41.16,5.11,93.66-22.52,132.03-.95,2.57-10.5,7.19-10.08,9.08,1.31,5.92,13.32,2.26,17.06.78,11.2-4.43,24.16-14.57,26.13-27.15Z"/><path d="M74.53,137.28c.62.88.17,3.42,1.09,4.92.54.87,2.35.9,2.79,2.2,1.61,4.77-.66,11.42-6.57,10.93l2.88,10.55c-4.37.73-6.57-.78-9.91-3.04-1.25-.84-9.04-6.7-9.34-7.21-1.03-1.75-.55-4.19-1.42-6.03-1.98-4.19-7.36-4.92-6.17-12.93.13-.87,4.6-10.04,5.29-11.06,4.9-7.22,7.93.61,9.54.71,9.86-7.57,5.66,5.57,7.67,8.87.84,1.38,3.64,1.37,4.15,2.09ZM67.05,128.45l-6.19,2.86-2.92-4.77c-3.94,2.76-2.6,5.49-2.39,9.58h-3.85c-.51,4.81.21,8.19,5.76,7.69-.02,3.7-1.21,6.67.94,10.1.8,1.28,9.35,8.14,10.11,8.1,3.45-.14-.69-5.18-.94-5.77-2.79-6.85,3.92-2.99,6.52-4.7l1.57-3.46c-.08-2.03-2.31-2.78-3.26-4.35-.72-1.18-.32-3.11-1.47-4.29-.93-.95-3.36-1.04-3.72-1.55-.82-1.15.3-7.43-.14-9.46Z"/><path d="M44.85,97.85c1.92,1.3.36,16.4-1.07,17.87-2.72,2.82-4.11-.5-5.6-1.13-2.14-.91-4.35-.62-6.13-2.5-3.29-3.48-5.63-10.92-2.87-15.27,3.95-6.24,5.81-.14,8.78.72,2.24.65,4.64-.18,6.88.32ZM34.32,98.77l-2.75-.06c-2.31,3.37,2.76,13.99,6.76,12.99,5.75-1.44,7.28-16.97-1.52-8.23l-2.49-4.7Z"/><path d="M29.62,67.97c2.45,3.76-6.43,18.75-9.01,18.18-1.53-.34-2.98-3.1-2.51-4.74,3.99-.07,8.59-4.9,7.75-9.06-.17-.83-2.33-.5-3.41-1.5-.93-.86-2.42-5.97-2.89-5.77l-2.46,3.4c-.8.72,5.77,8.34,1.51,7.14-6.76-1.9-6.15-12.44-.03-15.11,5.62,1.68,3.58,9.1,11.05,7.45Z"/><path d="M247.84,35.69c-2.73,2.02-5.87,2.76-6.6,3.46-.59.56-3.35,5.24-5.11,7.33-1.48,1.76-1.9,4.79-4.46,5.18-8.37-1.24-15.52,2.11-23.78-.24-2.09-.59-9.24-6.11-9.41-7.97,2.11-5.68,4.88-10.17,11.63-10.51l.44-3.41c2.99-3.53,6.06.41,8.84.82,2.48.37,15.92-.34,18.73-1.03,3.17-.78,7.53-3.52,10.94-3.58,2.92-.05,4.26,3.69,7.55,0l1.47,2.39c-1.53,5.03-6.61,4.85-10.25,7.54ZM223.27,35.52c-3.68,1.36-20.43,1.68-18.86,7.78.95,1.55,2.92,3.56,4.64,4.09,1.02.31,10.44,1.48,10.97,1.31,2.31-.73,1.14-4.46,2.07-6.63.54-1.26,2.96-2.62,3.22-4.48l-2.04-2.07Z"/><path d="M224.67,235.73c-1.02-1.18-.88-3.83-1.74-5.45-3.67-6.9-7.36-9.34-3.2-18.25,3.74-1.69,5.7,3.8,8.09,3.81,2.88.01,5.64-9.37,11.06-6.32,4.3,2.61-2.18,15.31-4.78,18.32-.82.95-2.53,1.38-3.36,2.4-1.14,1.41-2.74,9.34-6.07,5.5ZM235.98,214.84c-4.07-1.16-4.05,4.86-7.2,4.84-2.12-.01-3.07-3.64-5.74-2.92-3.65.98-.05,9.14,3.99,9.47.41.03,6.47-3.63,6.94-4.28.68-.92,2.52-6.58,2-7.11Z"/><path d="M272.16,209.25c4.22-1.29,5.62,1.42,6,5.23.5,5.03-7.39,17.14-12.7,15.58-4.85-1.42-6.82-14.25-1.61-16.63,1.5-.68,3.26-.33,4.74-1.02,1.28-.6,1.97-2.68,3.57-3.17ZM264.78,217.72c-.04,1.75-.77,8.25,2.29,7.59,3.22-.69,7.06-6.53,7.21-9.91l-1.81-1.53c-1.11,4.56-3.61,5.11-7.69,3.84Z"/><polygon points="240.78 225.4 240.31 227.32 237.91 228.27 238.38 226.35 240.78 225.4"/></g></svg>