<?xml version="1.0" encoding="UTF-8"?><svg id="Layer_2" xmlns="http://www.w3.org/2000/svg" viewBox="0 0 481.85 593.79"><g id="Layer_1-2"><path d="M249.81,15.38c.1.03.09.61.5.73,4.4,1.19,14.07,2.96,17.79,4.9.77.4.86,1.52.97,1.59.14.09,1.01-.51,1.53-.46.29.03.21.82.61.94.88.27,3.13-.06,3.58.13.61.26.53,1.05,1.1,1.27,1.2.47,3.22.09,4.3.32,1.17.25,2.05,1.53,2.19,1.55,7.44,1.3,15.4,3.37,22.46,5.31s13.91,5.58,20.28,8.98c2.59,1.39,7.22,3.04,9.14,4.35.84.57,1.15,1.62,1.31,1.7.65.37,1.98-.13,2.87.17.57.19.59,1.04,1.11,1.32,7.54,4.02,12.93,7.39,19.65,12.76,1.37,1.1,3.44,3.69,4.45,4.39,1.13.78,2.9.65,3.86,1.25.78.49,2.26,2.75,3.04,3.46.71.65,1.89.66,2.83,1.82.5.61.63,1.73.73,1.81.28.23,1.48-.02,2.24.31.59.26,1.03,1.28,1.63,1.63,3.48,2.07,7.03,4.28,10.33,6.4,5.14,3.28,9.58,8.33,13.91,12.81,3.83,3.96,7.86,7.59,11.78,11.7,2.64,2.76,6.15,5.57,8.74,8.9.55.71,1.13,2.52,1.45,2.75.74.52,3.3-.85,5.11.91.69.67.43,1.67.84,2.42.57,1.04,1.79,1.53,1.5,2.91l-2.78-.46c.62,2.8,1.96,6.19-.28,8.79-.92,1.07-5.02,2.15-6.44,1.89-.82-.15-1.41-1.05-2.32-.94-.25.03-.18.81-.59.93-1.47.43-3.29-.06-4.49.09-16.26,1.99-32.25,3.43-47.8-2.97-3.24-1.33-1.55-.57-4.71-.83-1.36-.11-2.87-1.21-4.27-1.35-7.34-.7-15.75-1.68-23.19-1.46-3,.09-7.11,1.71-9.52.04-.02.99-.06,1.98.05,2.96.53,4.65,2.52,8.13,4.56,12.15.32.19,6.3-1.02,7.1-1.3.92-.33,1.85-1.51,2.51-1.61,4.91-.73,20.73.58,25.86,1.82.93.23,1.52,1.16,2.45,1.3,1.32.2,2.45-.61,3.64-.46.87.11,2.84,1.36,3.9,1.71,3.56,1.19,5.69,2.12,8.97,3.6,1.41.64,3.85,2.24,5.47,3.34,1.37.93,8.34,5.51,8.64,6.23.68,1.62.05,4.71.3,6.68.4,3.21,1.08,3.38,1.05,7.41-.06,7.99.39,16.91,1.22,25.18,2.07,20.65,1.01,40.81.56,61.34-.08,3.48-.4,6.94.11,10.39.09.61-.26,1.29-.21,1.92,1.61-.13,4.75-.39,4.68,2.07,0,.36-.95.34-1.18.72-.71,1.11.37,2.74-1.9,3.25-2.68.6-2.02-1.39-3.22-1.41l-2.33,1.43c-1.49-2.84-5.95-1.73-8.83-1.86-3.2-.15-6.37-.49-9.68-.29-5.66.33-4.16,1.53-7.67,3.98-2.76,1.93-8.8,1.15-11.8-.1-.91-.38-8.33-4-8.7-4.33-.16-.14-2.33-3.41-2.29-3.62.09-.48,1.06-.86,1.26-1.56s-.93-1.81.79-2.02c2.27-.28,1.89,1.46,3.3,2.3s6.87,3.27,8.44,3.64c2.61.61,6.12,1.4,8.01-1.03,4.02-5.17,4.01-9.24,5.14-15.31.36-1.95,1.22-4.02,1.38-6.1.11-1.42-1.27-2.4.45-2.76v-.93c-1.81-.3-.41-2.45-1.14-3.51-2.83-1.82-3.23.77-4.3,1.45-.53.34-1.56.27-2.01.66-.8.7-.43,3.23-3.51,3.47l.26,2.34h-2.78c.39-4.29-3.44-6.65-4.88-10.21-1.92,2.25-3.08,5.11-1.63,7.89h-1.86c1,3.12-1.84,4.3-3.04,1.86-.35-.71.53-2.02.25-2.31-.09-.09-1.12.11-1.62-.47-.83-.97-.38-2.89-2.54-4.44-1.22-.88-2.11-.7-2.92-1.15-.53-.29-.53-1.1-1.11-1.32-3.13-1.22-4.23,6.94-4.37,8.98-.23,3.4.1,5.09,1.89,7.94l-1.35,1.74c.77.75.61,2.39,1,2.99.44.67,1.83.63,1.31,2.88l1.37.28c.41,1.52-.73,3.9-2.22,4.32-2.76.8-1.72-2.23-2.11-3.76-.06-.25-2.56-4.08-2.82-4.38-1.43-1.6-4.72-1.96-6.7-2.85l-1.03.64c.44,2.45,1.53,4.75,2.1,7.15,1.12,4.67,3.42,14.08,6.24,17.92,5.49,7.47,9.9,15.67,13.51,24.6.45,1.13.72,3.86,1.32,4.61.41.51,1.35.29,1.7.74.21.26-.27,1.07-.21,1.59.42,3.91,1.9,6.14,2.97,9.59,5.78,18.65,6.61,37.46,11.59,56.72,4.65,17.97,11.9,35.81,16.41,53.66.63,2.5.99,7.06,1.81,9.41.29.84,1.55.75,1.92,1.84.33.99.17,2.36.59,3.59.46,1.32,1.46,2.51,1.8,3.78,1.25,4.66,3.39,10.75,5.41,15.49.62,1.46,1.93,3.18,2.39,4.58.24.74-.04,2.16.18,2.4.16.18,1.05-.22,1.35.33.4.72.37,2.76.76,3.8.82,2.17,2.57,3.88,2.01,6.59l1.41-.23.69.69-.25,2.78,1.34.03c.15.63-.02,1.29.19,1.91,2.03,6.17,7.95,12.46,10.76,18.06.37.73.11,1.74.48,2.31.27.41,2.34.96,3.22,1.9s1.02,2.17,1.67,2.97c4.76,5.9,9.3,11.1,14.84,15.83,6.35,5.42,11.83,11.02,19.11,15.27,4.29,2.5,9.91,5.06,14.25,6.28,2.74.77,5.96.99,8.53,2.08.67.87.22,2.11.65,3.06.27.6,1.34.96,1.55,1.74.78,2.88-3.13,11.62-3.82,15.06-.41,2.06-.1,3.99-.76,5.99-1.77-1.02-2.62.28-3.97.44-5.2.62-10.47,1.32-15.77,1.79-7.13.63-20.86,1.5-27.79-.37-.37-.1-.54-2.37-1.52.04-1.39.23-4.14-1.33-5.08-1.42s-1.78.57-3.14.38c-.63-.09-2.96-2.13-3.94-2.58-6.75-3.11-10.57-4.55-15.77-9.91-.55-.57-6.15-5-6.77-5.42-.37-.25-5.25-1.73-5.44-1.53l-2.37,25.05c-.28.24-4.94-.78-5.66-.99-.65-.18-.98-1.03-1.47-1.11-1.77-.27-5.06.34-7.35-.29-.71-.19-1.2-1.01-2.07-1.19-.8-.16-3.55.48-4.12-.04-.7-1.65-1.78-2.21-2-4.05-.33-2.71-.5-6-.72-8.79-1.3-16.6-4.12-32.54-8.68-48.65-.78-2.77-1.38-6.87-2.37-9.8-.28-.84-1.35-1.29-1.79-2.39-.59-1.47-.38-3.18-.9-4.68-5.25-15.16-7.86-31.55-12.17-47.31-.51-1.85-2.56-3.54-1.73-6.12l-1.43-.26c1.26-2.53-.94-2.84-1.76-4.97-.49-1.27-.35-2.5-.68-3.5-3.88-11.4-8.66-24.12-14.39-34.41-3.51-6.3-7.55-13.32-11.02-19.74-3.27-6.05-4.62-9.47-9.16-15.17-5.47-6.88-20.65-23.86-29.78-26.65-2.08-.63-4.65-.35-6.74-1.63-1.01-.61-.93-1.2-1.4-1.61-1.38-1.21-1.98.26-3.35.36-3.52.26-9.96-.92-12.95-.53-.31.04-.25.86-.61.95-1.2.3-3.15-.16-4.56.01-3.92.47-11.88,1.72-15.19,3.3-.38.18-.4.87-.66.87-.49,0-1.14-.59-1.75-.42s-.75,1.22-1.26,1.56c-.93.61-4.41,1.28-4.49,2.35.15,1.37,1.76,2.88,2.09,3.84,1.77,5.15,4.13,13.26,5.18,18.52.45,2.24.08,6.01.5,7.76.13.55,1.46.51,1.78,1.58.57,1.87,1.36,5.81,1.81,7.95,2.26,10.77,5.05,23,5.22,33.73,3.62,5.84,2.34,16.79,3.3,24.66.09.7.82,1.23.91,1.92.22,1.67-1.55,2.69.94,3.72-1.89,2.63.78,5.08.9,6.48.31,3.59.3,5.99.89,9.79,1.83,11.89,1.93,25.25,4.44,36.56.54,2.45-.24,2.11-.15,2.81.07.52,1.99,2.92,2.05,4.26.06,1.13-1,2.65-.72,3.96l1.85-.47c.69,2.68,1.7,5.57,2.85,8.08,4.5,9.84,14.24,24.05,24.1,28.8,2.26,1.09,9.25,1.44,12,1.97,1.39.27,2.1,1.15,3.22,1.47s4.11.29,4.79.79c.53.39.38,1.78,1.09,2.62.66.77,2.07.87,2.39,1.33.59.85.09,6.91.22,8.61s2.02,10.96,1.66,11.42c-3.29,1.53-5.69,2.32-9.34,2.67-.62.06-1.34-.47-2.22-.31-1.14.21-2.42,1.75-4.39,1.68-.74-.03-1.07-.79-1.74-.83-.28-.02-.18.74-.58.92-3.9,1.81-11.38,1.06-15.68.48l-.24,1.41c-3.39-1.04-6.45.33-9.94-.05-5.9-.65-14.95-3.34-19.96-6.52-2.42-1.54-2.6-1.37-4.91-2.52-1.61-.81-5.98-4.25-7.92-5.57-1.24-.84-1.58-2.47-4.19-2.53.65,2.32-.65,3.96-.96,5.78-.17.99.21,2.22.02,3.27-.21,1.13-1.47,1.64-1.75,2.89s-.02,2.6-.09,3.86c-.93-.09-2.04.18-2.93-.02-.35-.08-.37-.78-.68-.88-5.23-1.74-10.14-2.05-15.71-2.3-.17,0-.86,1.79-2.92.8-.1-1.63-2.11-3.21-1.94-4.79.11-1.01,1.36-1.38,1.44-2.36s-.89-1.56-.97-2.75c-.11-1.69.42-4.53.52-6.48.54-10.27.01-20.38.89-30.72.16-1.83.17-6.18.47-7.36.09-.36.92-.3.93-.58.28-5.8-.96-13.51-.68-19.48.13-2.8,1.18-4.12.87-7.71-.76-8.96-.29-20.19-.2-29.94.05-5.76,1.09-10.49.43-15.77-.39-3.12,1.32-8.26,0-11.61l.91-.9c-2.29-12.72-4.31-25.67-7.71-38.31-1.66-6.17-3.56-11.05-5.49-17.04-2.22-6.87-3.48-12.28-6.38-18.96-.5-1.15-2.23-3.98-2.49-4.93-.27-1.01,0-2.21-.27-3-.4-1.17-6.48-6.6-5.69-8.7-4.06-3.41-8.68-6.15-14.45-6.94-2.09-.29-4.79-.1-6.93-.5-1.45-.27-5.83-2.33-6.8-1.63-.4.29-.47,4-.33,4.57.19.77,1.14,1.3,1.29,2.48.17,1.32-.52,2.41-.48,3.65.12,4.03,1.61,7.28.93,11.62-.13.8-1.07,1.47-.95,2.3.05.31.96.4,1.34,1.05,1.56,2.73,2.01,9.93,2.44,13.42.18,1.45-.06,4.46.13,5.94.11.86,1.11,2.2,1.15,3.8.04,1.49-.88,4.64-.69,5.96.11.76,1.39,2.54,1.6,3.9.24,1.55-.05,3.03.14,4.51.66,5.21,2.82,11.32,2.78,16.77,0,1.2-1.18,2.35-.92,3.19.18.56,1.13.49,1.36,1.1.62,1.64,1.05,11.63.9,13.78-.07.95-.81,1.82-.76,2.75.05,1.11,1.17,2.3,1.26,3.37.66,7.52.62,16.14.47,23.66-.16,7.83-.13,14.79-2.77,22.33-.73,2.09-4.22,8.99-6.68,8.92-.72-.02-5.68-2.22-6.1-2.69-.97-1.11-1.19-3.16-1.62-3.97-.94-1.76-3.56-2.94-1.89-5.76-3.48.13-5.13,4.98-8.66,5.43-.31.04-3.82.13-4.02.08s-3.6-1.64-3.78-1.76c-.28-.19-.29-1.64-1.91-2.36-1.53,3.81-6.02,6.49-9.87,3.83-1.16-.8-.84-1.58-1.17-1.88-.23-.21-3.37-.65-.38-1.99l.04-.66c-2.18-1.03-.81-.96-.97-2.26-.5-4.07-1.72-8.43-1.31-12.58.1-.99.83-1.92.84-2.83,0-1.12-1.02-2.28-.92-3.72.53-7.82.02-16.81,1.02-25.09,1.57-13.03-1.21-28.78-.33-41.74.2-2.92-.69-5.55-.63-7.53.02-.66.93-1.34.96-2.77.06-2.37-.89-7.52-1.23-10.07-.61-4.67-1.99-8.59-1.13-13.63.1-.6.46-1.04.91-1.41l-1.4-1.02c.46-8.13.94-16.32.39-24.45-.11-.58-2.69-1.87-3.1-1.94-1.42-.25-3.71-.31-5.53-.58-10.1-1.51-24.29.26-33.65-3.06-1.31-.46-3.97-1.33-4.1-2.88-.06-.76.51-1.58.49-2.34-.08-3.41-1.23-7.56.45-10.66v-.7s-1.4,0-1.4,0c-.11-1,.85-1.53.88-2.53.02-.89-.73-1.96-.68-2.82.07-1.22.87-4.15.73-5.55-.1-1.02-1.54-1.78-.47-3.5-1.22-.28-2.1,1.07-3.26.74-1.49-.41-3.55-2.65-2.33-4.27,1.76-2.35,4.44-1.27,6.53-2.76-1.58-2.26-.73-4.83-.94-7.42-.11-1.41-.09-5.24-.23-5.87-.17-.75-1.18-1.21-1.2-2.49-.02-1.36,1.78-6.08,1.85-7.41.06-1.12.1-5.92-.9-6.1.77-4.19-.78-9.22-.96-13.45-.07-1.7,1.33-3.29-.45-3.73.93-3.68,1-8.14,1-12.07,0-3.05-.42-5.83-.54-8.82-.25-6.22-1.38-12.38-1.2-18.99.02-.92.61-1.91.79-2.83l-.98-.5c1.09-3.63-.61-8.72-.92-12.53-.59-7.17.72-14.83.49-21.82-.01-.31-.95-.06-.99-.94-.11-2.28.21-5.17.1-7.97-.26-7.01-.26-14.71-1.36-21.42-.07-.43.75-1.26.87-2.21.23-1.81-.49-3.25-.49-4.71,0-10.67.26-20.89.02-31.59-.08-3.9-.83-8.48-1.92-12.03-.42-1.39-1.09-2.71-1.31-4.26-2.94-2.23-4.7.46-6.75,1.25-.85.33-2.81.35-2.98.51-.19.17-.08,1.19-.74,1.81-1.02.95-5.8,3-7.46,4.16-5.87,4.11-11.09,9.94-17.28,14.09-.65.44-.38,1.82-2.6,1.15-3.45-1.03-2.43-6.84-2.66-9.43-.16-1.86-1.28-4.19-.82-5.93.2-.76,1.09-1.28,1.28-2.47.38-2.37-.53-6.53-.31-8.75.09-.9.76-7.03.86-7.39.21-.77,1.3-1.15,1.56-1.73.85-1.91,1.58-5,2.61-7.15.44-.91,1.24-1.53,1.54-2.19,2.6-5.6,1.69-10.03,6.53-15.76,5.27-6.25,16.36-13.83,23.69-17.24.75-.35,1.78-.01,2.11-.21,1.68-1.05,3.48-2.43,5.55-3.7,1.09-.67,2.05-2.61,2.47-2.88.71-.45,3.27-.67,4.15-1.08,1.61-.76,3.8-2.13,5.84-3.09s10.1-5.25,12.03-5.59c2.96-.51,2.47-1.33,5.11-2.85,1.14-.66,7.19-4.3,7.61-4.45,9.86-3.47,19.45-8.53,29.6-11.31,3.93-1.08,8.06-.86,11.84-2.09,9.88-3.2,18.84-2.47,28.93-3.1,12.08-.75,23.79-.09,36.25-.01s25.14,2.28,37.05,5.19c3.21.79,7.8,4.28,11.02,5.7,3.96,1.75,8.28,2.78,12.38,4.14ZM212.02,9.93c-.35-.22-.22-1.05-1.29-1.25-14.13-2.66-28.76-1.72-43.17-2.27-3.51-.13-6.99-.18-10.32,0-7.25.39-14,.06-21.21,1-12.57,1.64-25.07,4.9-36.7,8.84-1.08.36-1.92,1.44-3.79,1.23-.33,2.31-1.02,1.06-2.7,1.57-3.61,1.07-7.64,3.92-11.09,5.65-4.1,2.06-9.19,4.13-13.08,6.45-5.4,3.22-12.02,5.52-17.98,8.48-.8.4-1.41,1.44-2.64,2.01-1.31.6-3.1.6-4.03,1.08-.78.4-.81,1.27-1.59,1.66-1.94.99-1.74-.02-4.13,1.91-2.04,1.64-5.6,4.37-8.22,5.72-.93.48-2.07.77-3.12.84l.39.85c-2.1,1.53-5.88,3.36-7.59,5.19-2.85,3.04-3.37,6.72-5.4,9.47-.72.97-2.09,1.19-2.52,2.59-1,3.31-1.54,7.21-2.67,10.8-.7,2.21-1.3,5.15-2.64,6.66,1.81,3.73.72,10.25.41,14.81-.11,1.55-.65,2.71.06,4.47,1.35-.68,3.02-.85,4.27-1.54s2.06-2.45,2.91-3.11c1.07-.82,4.13-1.82,4.67-2.32,2.65-2.48,1.8-3.11,5.93-4.28,1.01-.29,1.7-2.21,3.53-1.86l.12-1.23c1.98.3,1.5-1.42,3.14-.57.24-.49,1.32-2.52,1.56-2.65.83-.45,4.94-.51,5.81-.86,1.26-.51.68-2.34,4.44-1.46,3.05.71,3.81,4.21,4.37,6.77,2.64,11.93,1.97,21.64,2.42,33.32.26,6.88,1.48,14.5,1.47,21.38,0,1.75-1.35,4.31-1.21,5.58.4,3.81,1.03,8.05,1.2,12.07.13,3.07-.48,6.35.46,9.27l-1.42.98.95,1.85c-1,.02-.91,1.81-.78,2.71,1.09,7.48.49,15.25.97,22.76.38,5.97-.09,12.68.41,18.16.13,1.45,1.08,3.38,1.23,5.18.2,2.3-.85,5.23.04,7.39l-1.4.96c1.43,2.16,1.43,6.2,1.21,8.77-.03.38-.65.79-.64,1.01.01.44,1.18.81,1.24,1.82.04.62-.5,1.51-.48,2.36.08,3.06.61,5.97.05,9.06,1.73.44,1.45-1.12,2.54-1.89s1.97.27,1.43-1.84l4.21-5,4.78.9.07,1.27c2.84.05,5.3.4,6.28,3.29,3.46-1.45,4.86,1.44,7.8,2.27,1.8-.58,3.56-4.68,4.51-5.25.49-.3,1.32-.13,1.68-.4,4.12-3.12,4.49-4.96,10.49-3.91,4,.7,11.05,4.2,14.44,6.46.95.64,2.19,2.87,2.86,2.71,1.18-.75,1.18-2.77,1.77-3.58.27-.37,1.2-.65,1.73-1.28s.65-1.61,1.03-2.01c.57-.6,2.75-.18,3.6-.79.76-.55.46-2.06,1.24-2.59,1.91-1.3,8.08-2.26,10.4-2.08,1.13.09,7.14,1.93,7.62,2.62.24.35.15,1.14.31,1.28.15.13,1.86.07,2.71.34,2.07.65,1.07,1.77,1.49,2.43.73,1.16,4.04.67,3.2-1.75l3.03-.47-.5-2.82c.97-.26,1.98-1.82,2.58-2.08s1.24.28,1.83.02c.56-.24.85-1.21,1.75-1.53,6.58-2.33,16.95.53,20.58,6.61.91,1.53.53,4.35,3.24,3.76,2.33-.51,1.65-2.06,3.01-3.07,1.29-.95,6.79-3.54,8.49-4.05.63-.19,1.33-.11,1.98-.11-1.1-4.21-1.61-8.46-2.37-12.73-.97-5.45-1.28-11.56-1.77-17.31-.45-5.17-.15-10.71-.5-15.72-.13-1.83-1.19-3.03-1.37-4.22-.68-4.58-1.14-11.56-1.18-16.26-.02-2.17-.28-1.1-.51-2.29-.19-.99.16-3.47.09-4.58-.1-1.55-.77-4.43-.71-5.69.11-2.29,4.06-1.72,4.53-2.14.38-.33.52-1.52,2.44-2.9,10.58-7.63,30.74-11.78,43.86-12.36,4.29-.19,8.51.19,13.02-.23,2.89-.27,4.85-1.3,8.38-1.18,3.03.11,7.94,1.8,10.28,1.78,1.89-.02.69-.5,3.68.05,4.88.91,9.41,1.3,14.12,3.3-.17-3,1.73-2.27,3.45-3.31.54-.33.64-1.27,1.06-1.36.86-.19,1.79.41,2.65.34,2.68-.23,3.15-.77,6.55-.73,2.16.03,3.19-1.77,3.84,1.69,1.99,10.54.41,22.94,1.17,33.69.08,1.07.74,2.18.8,3.38.21,4.64-.57,9.49.95,13.92l-1.86.94,1.86,1.4v.93s-.94.24-.94.24c1.51,1.55.43,1.6,0,3.23l1.38.71-.92,1.15c1.24-.18,1.6,2.12,1.73,3.15,1.12,8.88,1.11,19.19.87,28.15-.05,2.03-1.27,4.01-1.27,4.24.02,1.28,1.46,4.14,1.51,5.77,1.97-.23,3.89.47,5.73.55,4.19.18,8.12-.02,12.08.43,1.38.16,5.95,1.35,6.79.75,1.46-2.95.03-6.83.66-9.57.18-.79,2.33-5.44,2.79-6.04.68-.88,1.76-.93,2.6-1.59.55-.43.74-1.55,1.21-1.67,1.91-.48,4.18.84,5.99,1.38l4.6,3.74c.84-1.17,3.08-5.19,4.29-5.51,3.1-.83,8.09,5.71,9.2,8.29,1.49.35,1.52-1.22,2.3-1.87.66-.55,1.61-.71,2.11-1.16.35-.32.8-2.58,2.33-3.26.45-.2,3.75.18,4.29.35,1.48.46,3.63,3.9,3.92,5.38,1.22,6.16-.78,14.84-1.87,21.11-.41,2.35-1.29,4.45-1.26,6.88.59.6,15.75.1,16.76-.67.57-.44.26-1.35.48-1.75.24-.44.88-.4.9-.64.05-.74-.86-2.21-.89-3.26-.25-8.22.99-16.78,1.13-24.85.03-1.61-1.24-3.24-1.19-5.3.12-4.95.76-9.1.53-13.95-.08-1.57-.88-10.03-.37-10.82.09-.13.52-.1.74-.15l.05-.88c-.6-.09-1.35-.38-1.64-.94-.11-.22-.72-4.65-.71-4.9.04-1.63.78-2.99.45-5.47-.6-4.61-1.71-10.77-1.3-15.37.48-5.51-.02-8.04-.05-13.06-.02-2.87.93-3.14-1.26-6.17-3.97-5.48-16.87-10.62-23.17-12.14-12.19-2.94-28.5-4.74-39.81-.68-3.3,1.18-4.56,2.18-7.6,3.81-4.05,2.17-8.27,4.13-12.28,6.36l-1.74-2.72,1.5-3.12c1.12-.56,4.5-1.72,5.27-2.43.45-.41.33-1.39.68-1.65.38-.28,6.36-2.04,7.45-2.45.59-.22.06-1.45,2.21-.42-.25-1.67,1.27-1.07.91-2.97-.38-2-1.87-2.59-2.36-3.72-.64-1.47.13-2.21-.03-3.21-.17-1.11-1.69-2.05-1.77-3.38-.11-1.75,1.62-2.79,1.85-4.38-2.25.81-4.47.83-6.9,1.13-16.67,2.07-34.33,5.03-51.43,4-5.98-.36-11.96-1.89-17.78-2.7-5.26-.74-10.66-.2-15.85-2.7-.77-1.13-6.66-4.01-6.55-5.04.36-3.51,2.45-1.52,3.58-1.34.87.14,2.55-.47,4.07-.29,2.49.3,5.67,1.75,8.04,2.18,10.62,1.93,23.38,3.51,34.19,3.65,8.66.12,17.84-.23,25.7-2.47,1.67-.48,5.72.06,7.78-.19,13.84-1.67,26.92-3.53,40.92-1.79,3.55.44,7.6.29,11.58.97,7.09,1.22,14.47,4.04,21.54,5.41s8.22,1.36,15.22.35c3.81-.55,11.32-.17,15.33-.24,1-.02,1.99-.6,3.02-.47-1.05-3.22-1.32-4.67.53-7.62.59-.95,2.06-.44,1.08-2.58-.22-.49-4.34-5.05-4.82-5.4-5.82-4.21-10.91-9.76-16.34-14.79-4.42-4.09-8.19-7.72-13-11.16s-9.32-6.74-13.88-10.28c-6.93-5.38-13.85-10.52-20.7-16-8.88-7.1-18.75-10.16-28.43-15.72-4.7-2.7-9.07-4.64-14.19-5.79-2.99-.68-3.09-1.5-4.99-2.38-.8-.37-4.43-.53-5.69-.88-22.58-6.23-43.77-13.92-65.4-21.95-3.31-1.23-8.1-3.25-11.5-3.84-1.83-.32-4.44.27-6.02-.73ZM300.14,154.6c-1.44.58-2.79-.19-4.38.03-.42.06-4.4,1.2-4.61,1.33-.49.3-2.6,5.42-2.65,6.34-.07,1.45.57,2.72.53,4.16-.23,6.98-1.8,14.39-1.44,21.35.01.28.87.22.95.57.27,1.1-.59,2.48-.52,3.65.14,2.26,1.43,6.15,1.3,8.93-.04.92-.8,1.51-.78,2.22.01.6.85,1.27.96,2.32.36,3.36-.43,6.31-.99,9.32-.17.89.98.4,1,1.35.08,3.12-.91,8.14-.94,11.69-.02,2.94.93,6.58,0,9.67l2.27.74c.17.71-.64.27-.91.8-.95,1.85.23,3.36.27,5.08.06,2.42.02,4.52.12,6.87s-2.03,6.17,1.71,6.78c.86.14.47-.87,1.53-1.15,3.12-.82,5.42.37,9.26-1.63.5-.26,1.89.42,1.84-1.27-.02-.71-.8-1.24-.87-2.24-.1-1.52.88-3.92,1.01-5.53l-.91-.48c3.04-13.58-2.46-28.72-1.79-41.96.04-.8.96-1.32.84-2.19-.06-.41-1.22-.38-1.4-1.01s.55-1.72.44-2.7-1.3-1.94-1.37-3.33c-.23-5.17.48-12.23.43-17.63s.32-12.01,0-16.73c-.12-1.71-.81-3.61-.94-5.35ZM215.13,290.3c-3.61.21-4.8,1.92-7.55,3.38-3.08,1.63-5.75-.14-5-3.55.11-.49,1.42-.01.94-1.23l-1.34-.03c.35-2.86-2.34-3.42-.53-5.99-2.56-.6-1.27-5.47-1.53-7.55-.19-1.53-.95-2.83-1.14-3.96-.53-3.13-.78-6.32-1.51-9.42-2.1.74-5.04,1.26-7.27,1.37-1.51.07-4.44-.64-5.94-.42-1.08.16-1.75,1.27-3.51.67-.81.52.11,1.48-.18,2.57-.12.45-1.16,2.08-1.51,2.73-1.57,2.98-4.04,6.61-5.63,9.68-.81,1.57-.4,4.35-2.43,3.85l.91,1.13c-1.2,3.28-4.83,4.96-4.63,8.63-.79.08-1.47-.04-2.2-.36-.32-.14-4.55-4.18-5.03-4.73-4.5-5.11-11.25-13.6-13.55-19.92-.22-.61-.05-1.3-.16-1.92-2.1-.58-7.4-.97-8.26-3.12s.5-1.19.85-1.38c.45-.25.75-.89,1.26-1.03,1.96-.54,5.73,2.78,7.57-.31-1.1-2.85-5.1-1.53-4.64-4.89-1.71.54-4.25-1.17-6.12-1.91-.33-.13-.37-.77-.72-.85-.87-.21-8.97-.46-9.41-.25-.27.13-4.72,3.23-4.93,3.45-.88.95-1.81,3.55-2.59,4.84-.52.85-1.75,1.59-2.01,2.17-.69,1.57.66,2.79-1.51,3.14-2.43.39-2.04-.82-3.23-1.2-1.9-.61-2.42.61-3.64.82-7.14,1.24-14.52.48-21.9,1.7-6.14,1.02-13.03,1.13-19.22,2.23-.95.17-1.84.82-2.55.93-3.44.51-7.39.56-10.9.74.47,1.64,0,8.37,1.23,8.78.95.32,5.81-1.6,7.84-1.28.95.15,4.39,2.3,5.04,2.2,1.37-.5,1.61-2.27,2.3-3.05,1.9-2.12,10.58-4.66,13.06-2.9.19.13,2.5,3.44,2.69,3.81,2.64,5.23.29,14.12-2.54,19.04-1.45,2.52-4.11,2.83-3.94-.69.21-4.61,3.4-5.88,3.13-10.34s-1.57-6.85-6.2-7.58c-1.16.93-4.64,4.92-4.49,6.16.09.7.92,1.17.84,1.79-.13.93-1.43,3.76-2.45,3.91-1.28.18-1.53-2.28-2.18-3.28-1.91-2.95-5.59-3.97-8.96-3.54-.69.09-1.18.83-1.85.86-1.11.05-1.44-1.06-2.52.34-1.25,1.61-.76,5.85.26,7.48.35.57,4.82,4.76,5.56,5.17,1.06.59,7.77,3.25,8.75,3.34,3.23.32,6.88-1.21,9.99-1.41.39,2.73-3.24,2.75-4.45,3.69-.42.33-.51,1.18-.75,1.32-.68.4-4.75.65-5.69.12-1.96,2.69,1.14,1.75,2.25,1.89,6.67.84,13.32,2.56,19.92,3.78.58.11,1.06.45,1.51.81.53-.03,1.16-4.22,1.13-4.91-.05-.98-1.26-1.27-1.37-2.3-.17-1.51,1.85-3.69.59-5.59l1.75-.68c-1.14-3.04.13-5.97.96-8.93.1-.35.79-.34.87-.69.44-1.86,0-8.33,2.18-8.9.78-.21,1.15,0,1.52.7.13.54-1.23,10.13-1.49,10.96-.38,1.22-1.78,1.85-1.76,2.44.04,1.14.88,1.91.97,2.84.18,1.81-.59,5.36-.46,7.86.36,6.85,1.95,11.67,1.43,18.57-.08,1.09,1.25,4.92,1.31,6.56l-.9.86c1.14,5.39,2.15,15.01,1.42,20.44-.11.79-1,1.28-.95,2.32.05,1.16,1.35,1.87,1.45,3.74.65,11.77-1.01,23.15.76,35.03.75,5.04,2.19,13.01,1.54,17.99-.38,2.91-.03,2.3-.05,4.56-.02,2.1-1.03,5.52-.86,7.92.14,2.1,1.51,4.58.93,7.03l-1.43,1.6,1.42,1.16c0,2.98-.8,6.4-.82,9.25,0,1.3.39,3.21.18,5.09-.28,2.5-.38,7.18-.34,10.28.06,4.52.71,9.14.78,13.58.06,4.13-1.38,24.99,1.09,26.9,2.12.56,2.97-2.75,3.89-3.39.38-.27,1.16-.05,1.23-.13.1-.1-.37-1.85-.18-2.71s1.9-2.39,2.01-2.75c.78-2.7.15-6.3,2.13-8.94.45-.59,1.4-.81,1.52-1.03.4-.7.28-3.18,1.77-4.09,2.24-.17,4.94,3.09,2.77,4.69-.6.44-1.59.38-1.65.44-.06.05.44.84.35,1.48-.2,1.59-1.02,2.74-1.24,3.9-.65,3.48-.52,7.09-1.9,10.41,1.29-.34,2.06,1.35,3,1.38.22,0,3.8-1.03,3.97-1.15.5-.37.5-1.35.93-1.86.76-.91,2.42-2.27,2.98-3.04.66-.91.33-2.92,2.37-3.24.76-.12,2.13,3.32,3.21,3.77.92,2.55,2.12,4.99,3.24,7.45.49,1.08-.11,2.3,2.13,3.02,2.83.91,3.34-3.88,3.34-5.78l2.72-1.24c.36-1.36-.93-1.09-.94-1.43-.07-2.12.72-3.8.96-5.52,1.51-10.95-.7-24.85-.93-35.79-.39-18.53-3.6-36.97-5.65-55.27-.2-1.81-1.06-4.98-.93-6.59.08-1.02,1.17-.53.98-.9-1.15-.7-1.9-3.02-1.82-4.22.05-.76.87-1.1.9-1.82.01-.29-.85-.15-.94-.54-.5-2.04.14-4.41.03-5.91-.02-.33-.85-.27-1.1-.85-1.3-2.96-.69-11.36-.75-15-.09-5.64-.37-11.11-.4-16.73-.03-5.05,1.35-11.5,1.3-16.73-.1-10.26-1.43-21.57-3.31-31.55-1.01-5.39-.91-9.55-1.45-14.81-.45-4.5-.82-8.7-1.76-13.1.75-2.01-.12-10.34,3.03-10.31,2.36.03,1.41,3.27,1.67,4.67,1.29,7.04,2.32,13.96,2.73,20.98.48,8.33,2.43,17.35,3.45,25.45.21,1.65.67,3.28.77,4.95l20.43-.92c-1.05-2.3-2.03-4.15-.49-6.64.15-.23,3.38-3.4,3.92-3.9.29-.28,2.62-1.38,2.95-1.67.56-.49.26-1.93,1.49-1.99l3.73-.67c.76,2.85,4.5,3.99,4.68,7.43,2.79.16,1.77-2.82,4.44-3.72.52-.17,5.27-.66,6-.67,3.38-.06,7.85,3.64,8.08,6.92.03.46-.38,2.57-.55,3.14-1.31,4.43-2.79,5.01-5.01,8.01-.7.94-.02,2.26-1.81,2.82-.07,1.07,6.01,3.6,6.51,4.18.63.73.29,1.72.53,2.02.13.16,2.4.48,3.13.82,4.09,1.93,10.35,8.82,13.76,11.8,2.59,2.26,5.96,7,9.66,6.06.54-.14.38-1.36,1.47-1.43.65-.05,1.75.67,2.04.46.26-.19.33-1.44,1.6-1.96.95-.39,1.6.2,2.29.02,5.33-1.39,9.37-1.5,14.6-2.03,1.38-.14,4.89-.07,5.89-.68,2.29-1.37,2.62-4.88,3.75-6.76.56-.94,2.13-1.22,2.37-1.57.33-.49.06-1.23.36-1.73,1.69-2.82,7.56-10.25,10.32-12.21,14.67-10.39,26.44-9.43,43.09-9.88.88-.02,1.83-.72,2.84-.67,1.16.06,8.64,1.61,6.8,3.57,2.86-1.35,4.62,1.05,7.43.94l-.46,1.39c.74-.23,2.09-.93,2.8-.67.41.15,4.11,2.58,4.81,3.07.51.35.7,1.28,1.07,1.35.77.15,1.73-.55,2.61-.42.79.12,1.35,1.02,2.08,1.22,1.53.43,4.21-.27,5.67-.84.62.53-.93,3.8-1.4,4.4-1.05,1.33-3.82,2.61-5.56,2.57l.93,3.71,4.64-.93c-.34,2.42.05,2.68,1.86,3.95-.68.87-1.21-.83-1.86-.49-.95.5-1.04,2.93-2.65,3.41-2.69.8-2.35-.72-3.42-1.5-1.66-1.21-1.88-1.54-3.25-2.8-.9-.83-2.33-.44-2.32-2.56-.7.13-4.35.85-4.53,1.01-.27.24.09,1.15-.87,1.68-1.73.95-9.78.47-11.6-.33-.93-.41-.97-1.27-1.45-1.43-.71-.24-1.7.08-2.58-.45-1.47-.87-2.13-4.92-4.96-1.19-1.52,2-1.51,1.54-2.66,2.68-.31.3-.18,1.2-.79,1.76-.76.69-5.1,1.91-6.28,2.08-3,.43-9.68.31-12.49-.57-.95-.3-1.44-1.11-2.4-1.08-.09.67.36,1.38.3,2.01-.23,2.19-1.11,4.66-1.96,6.31-.49.95-2.25,4-3.01,4.44l-4.63,1.89c.24,1.89,3.13,1.96,4.56,2.89,3.47,2.27,6.75,6.34,9.59,9.23,3.39,3.44,7.21,7,10.28,10.39,10.82,11.96,17.01,26.93,24.66,40.86,1.86,3.39,4.54,6.94,6.3,10.43,4.66,9.21,7.23,19.56,10.45,29.31-1.74,1.74.84,1.59,1.23,2.74.21.61-.2,1.4.06,2.18,1.24,3.78,4.01,9.04,4.71,12.55.28,1.39-.3,2.49-.08,3.29s1.23,1.4,1.56,2.18c1.44,3.4.47,4.43.59,7.32.18,4.16,2.44,4.91,3.47,8.61,2.27,8.22,4.5,16.26,6.86,24.28,2.56,8.69,6.21,19.24,7.67,28.02.55,3.34,1.77,6.68,1.99,10.23.37,6.01,1.53,11.12,2.71,17.23l.73,13.68c4.28,1.15,8.17,2.82,12.81,2.29.23-6,1.86-11.82,1.42-17.87l2.1-8.18c3.85-.17,4.37,2.08,6.46,3.75s6,4.26,8.43,5.95c5.52,3.86,9.74,5.7,15.47,8.71.84.44,1.21,1.47,2.25,1.93,8.39,3.71,22.79,1.08,31.94,2.91l23.4-2.85c.62-1.99,1.75-3.42,1.57-5.64,1.58-2.31,1.62-5.44,2.14-8.18-3.45-1.78-7.06-2.02-10.7-3.46-2.39-.95-3.85-2.35-5.62-3.21-1.21-.58-5.69-1.61-6.5-2.18-6.97-4.8-12.66-12.46-19.54-17.55-.9-.66-2.66-.83-3.58-1.76-.74-.75-.96-2.13-2.04-3.07-.7-.61-1.94-.9-2.02-1-.26-.32-.05-1.22-.35-1.73-.84-1.42-3.47-3.63-4.62-5.16-1.21-1.61-1.98-3.36-3-4.89s-2.8-2.34-3.61-3.13c-1.06-1.03-2.64-5.38-3.55-6.68-1.13-1.64-3.11-2.99-4.41-5.11-3.62-5.95-5.78-13.5-8.59-19.3-1.38-2.85-1.71-4.46-2.67-7.46-.13-.41-.9-.34-.93-.63-.07-.57.7-1.84.49-2.03-.07-.07-.92.08-1.37-.24-.99-.7-2.32-6.2-2.96-7.75-7.89-19-13.17-38.39-19.86-57.75-4.3-12.43-7.06-22.47-9.6-35.48-3.35-17.18-5.77-34.85-11.06-51.21-.33-1.03-.78-3.45-1.28-4.06-.43-.52-3.65-2.8-4.52-2.92-.37-1.48,2.07-1.27,2.32-2.12-.56-1.03-.63-2.72-.94-3.56-.2-.56-1-.45-1.29-1.13-1.74-4.26-3-9.02-4.99-13.15-.4-.84-1.99-1.78-2.57-3-.46-.98-.32-2.11-.86-2.86-.43-.6-1.71-.8-2.12-1.6s-.25-2.07-.68-3.04c-1.52-3.39-3.73-6.54-4.69-10.24l.98-.91c.1-.82-2.93-6.32-3.47-7.7-.29-.73-1.51-3.68-1.58-4-.35-1.57.45-2.79.38-4.31-5.74,1.27-12.53-2.03-17.98.61-1.71.83-3.73,1.41-4.79,1.96-1.14.6-5.33,4.2-6.8,5.24-2.46,1.75-4.69,2.44-6.48,5.17-1.81-.23-1.67-2.92-1.02-4.06.24-.41,4.8-2.43,5-4.29-2.16-.33-7.9.44-8.27-2.2-.16-1.14.73-2.75.83-4.09.46-6.09.97-8.11-1.28-13.58-1.23-2.98.25-6.16.38-9.21.07-1.82-1.27-6.32.46-6.95-2.01-3.09,1.04-6.73-.98-10.22.12-1.16,1.38-1,1.38-1.36.01-1.41-.75-4.12-.83-5.65-.4-7.09-1.57-14.54-1-21.82.2-2.58.32-1.33.05-4.18-.4-4.24.04-10.07,0-14.36-.04-3.49-.15-7-.02-10.46-1.49.45-2.85-1.65-3.53-1.77-2.67-.47-6.96-.16-9.73-.55-16.75-2.33-33.85-.84-50.59,1.86-5.27.85-17.43,6.15-22.04,9.09-1.25.8-2.66,2.14-4,2.96-.76,1.56.22,3.28.25,4.86.25,11.1,1.37,20.47,2.41,31.15.67,6.9,1.23,13.9,2.07,20.6s2.21,13.1,2.57,19.74c.51,1.86,2.48,2.18,3.03,2.78.19.21,2.42,4.97,2.45,5.26.12,1.23-.71,2.59-.47,3.91-1.32-.59-2.83-2.42-4.17-.7,1.3,2.61,2.09,5.95,2.08,8.84,0,2.57.01,1.2.67,3.73,1.29,4.95,1.16,10.27,2.88,15.01,1.49.92,6.21-2.94,7.9-3.8,11.66-5.98,23.99-7.31,36.53-9.47,1.15-.2,3.9-.92,4.6-.95.84-.04,1.42.78,2.24.79s2-.95,3-1.15c4.39-.88,8.8-.53,12.81-.91,1.09-.1,2.91-.82,4.18-.7,1.16.11,1.85.8,2.39.85.69.06,1.26-1.07,2.18-.83,2.11.56.89,4.58-.16,5.82-.74.87-4.89.51-6.28.67-6.04.69-12.17,1.76-18.12,2.32-1.67.16-3.24-.53-4.15-.48-.28.02-.21.84-.58.93-1.1.27-4.2.46-5.5.51-3.56.14-4.61.62-8.41,1.3-3,.54-6.26,1.47-9.12,2.49-4.4,1.56-12.52,4.29-15.68,7.33,1.25-.07,2.59-.06,3.83.12,2.14.31,5.95,2.52,7.51,4.11.82.84,2.6,4.11,2.85,4.15,1.8.3,3.28-3.56,4.4-4.89,1.89-2.24,4.26-4.36,6.57-5.88s3.79-3.66,6.7-.9c.45.43,2.97,5.04,3.16,5.69.34,1.17.25,5.09-.13,6.21-.78,2.3-1.92,4.52-2.79,6.61-.42,1-.31,3.02-.92,3.97-.46.71-1.73.6-1.89.82-.12.16.38.88.19,1.36-.1.25-2.25,3.41-2.61,3.86-1.94,2.47-6.19,7.1-8.53,9.13-.54.47-4.44,3.57-4.73,3.65-.53.15-1.08.2-1.56-.13l-1.83-3.28,1.66-1.16-.27-1.86c3.32.68,5.32-1.27,7.44-3.47,3.77-3.9,6.71-9.04,9.6-13.39l2.92-7.3-1.39.47c.19-2.5-.84-4.17-1.4-6.51-3.15.16-4.18,3.37-6.08,5.29-1.52,1.53-3.18,1.14-2.94,4.04l-1.65.44c1.46,3.24-1.86,3.76-2.83,5.3-.89,1.41.24,2.49-2.75,2.59.43-1.08-.77-2.11-.85-2.66s.68-.97.69-1.3c.03-.68-3.23-4.29-2.67-5.78-2.96.93-2.78-2.35-3.99-2.75-.58-.19-3.82-.22-4.24.03s-4.23,6.09-4.52,6.86c-.9,2.46-1.05,9.21,1.19,10.9.55.41,1.83.66,2.63,1.08,1.35.72,4.97,2.63,6.03,2.87.89.2,1.99-.09,2.93.02.56,1.62-1.09,1.37-1.35,2.15-.3.9,1.15,4.02-1.12,3.82-1.29-.11-4.29-2.79-5.92-3.38-3.05-1.1-4.33-.45-6.78-3.67-.29-.38-2.4-4.11-2.46-4.35-.73-3.1.19-9.23.93-12.36.08-.34.76-.27.88-.67.22-.72.34-3.34,1.05-3.76.47-.28,1.52.1,1.74-.1.11-.1.19-2.05.6-2.89.29-.59,2.1-2.56,2.68-3.12ZM173.72,250.86c-.16-.16-1.18-.03-1.76-.32-.83-.42-3.05-2.32-3.63-2.47-.91-.23-1.7.43-2.58.32-.61-.08-1.21-.83-1.96-.83s-1.39.79-1.94.83c-.66.06-.93-.89-2-.67-2.32.48-5.45,2.63-6.63,4.57-.54.89-3.52,7.4-3.14,7.79,2.02-.7,5.12.79,6.63.79,1.91,0,3.65-1.13,5.22-1.28s3.05.56,4.65.52,8.26-.56,9.2-1.05c1.47-.78.58-3.65-.12-4.8-.36-.59-1.26-.95-1.63-1.64-.29-.55-.12-1.6-.3-1.77ZM196.54,258.24c.21-1.06-.72-6.92-1.62-6.96-1.09,1.36-2.35.42-3.47.7-1.57.4-5.04,5.73-8.38,4.87l1.23,2.27c4.05-.42,8.16-2.15,12.24-.88ZM105.37,257.41c-.51-.34-1.99-.17-2.83-.65-.74-.43-.87-1.32-1.25-1.56-.5-.31-1.22.3-1.84.04-.51-.22-.84-1.14-1.76-1.52-.69-.29-3.77-.77-4.43-.6-.5.13-.53,1.1-.98,1.44-.94.71-3.5,1.07-4.47,2.52l-2.31,3.96,12.89-2.21,7.55.35c.18-.16-.32-1.59-.57-1.75ZM73.09,260.41c-1.72-1.15-.73-.45-2.13-.96-1.89-.68-5.98-2.6-7.9-2.18-.38.08-.44.84-.83,1.13-1.87,1.4-1.11,1.05-2.28,2.41-.76.89-2.32,1.63-2.33,3.46,3.05-.32,6.46-.79,9.5-.95,1.55-.08,3.56.53,4.57.39.84-.12,3.47-1.6,4.51-2.01-.1-1.25-1.86-.47-3.11-1.3ZM154.17,263.46c-.5-.29-1.19-.06-1.76-.11l.34.82-1.63,1.13c-.54,1.34,2.9,5.61,3.9,6.82,1.5,1.8,3.68,3.61,5.28,5.41,1.23,1.38,4.34,7.21,6.55,5.6.72-.52.51-4.01.91-5.02.13-.33,1.94-1.77,2.49-2.73,1.16-2.02,2.84-4.98,3.63-7.07.47-1.23.92-2.52,1.3-3.79-.41-1.47-5.41.16-6.76.23-1.21.06-5.31-.18-5.55-1.41l-.48,1.43c-1.96.39-2.92-.95-3.7-.95-.66,0-1.37,1.05-2.79.98-1.7-.08-1.36-1.13-1.72-1.34ZM57.96,300.68c-.49-.22-3-.75-3.12-.61-.05,1.58-.11,5.82,2.17,5.94.75.04,1.31-.69,1.84-.7,2.44-.04,5.48.72,8.07.33-.11-.58-2.83-2.61-3.02-2.67-.7-.2-2.1.08-3.14-.23-.89-.27-2.6-1.97-2.79-2.06ZM172.85,314c-2.44-2.92.47-9.06-2.98-11.65-2.09-1.56-6.86,3.56-7.21,5.87-.74,4.86,2.39,4.04,5.66,4.88.38.1.34.81.67.88,1.1.26,2.67-.14,3.86,0ZM187.38,313.2c.53-.47,2.23-.44,2.59-1.86.33-1.31-.62-1.64-.73-2.29s.51-1.42.29-2.17c-.18-.62-4.14-3.45-5.12-3.35-.64.07-4.67,2.74-5.07,3.26-.74.95-.71,2.36-1.28,3.36-.96,1.69-2.37,3.11-3.35,4.78,3.2-.14,5.39,3.25,8.55,3.24,2.23,0,1.35-1.36,1.91-2.28.09-.15,2.08-2.57,2.21-2.69ZM72.95,310.75c-2.33-.52-4.85-.19-7.18-.49-.75-.1-1.32-.88-2.34-.95-1.87-.13-5.21,2.01-7.67.98l1.39,3.25-1.8.76c-.26,2.58-.22,4.49,1.02,6.78.36.67,1.02.74,1.21,1.19.33.78-.29,2.37,1.24,2.79,1.51-1.23,4.34.63,4.58.57.4-.09.56-1.1,1.04-1.42.74-.5,2.19-.44,2.92-1.15.28-.27,3.8-6.32,3.92-6.76.36-1.27.07-2.36.36-3.36.24-.85,1.52-1.1,1.3-2.18ZM93.38,321.41c-1.09-1.51,1.88-4.52,1.89-5.31.03-1.8-2.57-.59-3.96-.69-2.64-.19-8.24-1.73-10.93-2.57-1.05-.33-2.86-2.43-3.97-.22-.14.28.67,5.5.83,6.15.55,2.33,2.54,3.84,3.16,6.14,2.13,1.31,5.52,1.65,7.93.98,1.68-.47,3.2-4.67,5.05-4.48ZM304.8,314.01c-1.49.01-2.92-.66-4.44-.52-.84.08-.61.83-.9.87-5.99.88-10.49.11-16.98,1.72-2.49.62-5.1,2.41-7.88,1.64l-.07,1.8c-2.15,1.25-5.04,2.18-7.09,3.38-.26.15-2.91,1.92-3.05,2.04-.52.43-.51,1.38-.94,1.85-2.09,2.32-3.73,4.29-5.11,7.2,2.08.12,3.41,1.99,5.15,2.99,3.81,2.19,6.86,2.44,11.05,1.13.72-3.99,2.13-8,1.51-12.17l3.44-3.1,3.2,3.74c6.59,2.52,14.21,3.24,18.86-3.05,2.83-3.83.88-5.03,1.87-7.77.27-.75,1.68-.53,1.38-1.75ZM314.69,316.18c-.37-.18-2.76-1.75-3.37-1.9-.79-.19-2.1.19-3.04-.28l-1.6,2.1c2.82.84,3.43,4.23,5.33,5.81,1.06.88,2.74,1.09,3.93,1.67.35.17.37,1,.82,1.12,1.02.28,5-.35,6.28-.6.67-.13,4.72-1.19,4.91-1.36.21-.19.24-1.29.52-1.71-.51-.79-11.81-3.9-13.76-4.85ZM165.41,319.12c-1.34.3-2.39-.75-3.51-.91-1.19-.17-5.57-.96-6.01-.97-.28,0-.16.85-.54.95-1.14.29-13.2-.48-13.17.7.77.99,2.71,3.77,3.5,4.4.5.4,3.41,2.22,4.24,2.73,2.19,1.35,5.85,1.86,8.41,1.82,1.5-.03,3.45-3.27,5.19-2.72l1.9-6ZM183.74,330.48c.83-.57,1.92-1.24,2.13-2.31,0-.67-2.27-2.56-2.82-2.77-1.1-.43-2.12-.07-3.22-.49-1.26-.49-2.97-2.94-3.94-3.5-1.23-.71-2.72-.25-3.74-1.72-3.56,1.56-3.84,5.37-2.81,8.73.43,1.39,2.07,2.29,1.17,3.7,1.34-.07,2.78.85,4.02.91.75.04,5.55-.26,5.88-.44.84-.47,2.48-1.53,3.32-2.11ZM77.24,328.77c-.23-.2-.18-1.1-.55-1.52-.47-.54-2.62-3.14-2.81-3.25-2-1.21-3.4,2.27-4.61,3.28-2.62,2.19-7,3.37-10.38,2.88-.92-.13-1.96-1.4-3.16-.63-.63.45-.61,3.85-.36,4.6.52,1.53,2.12.78,2.87.94,5.45,1.19,9.5,1.68,14.94,1.78,6.85.12,13.07,1.63,19.49,1.75.86.02,1.94.71,2.75.45.7-.22,1.23-3.64,1.18-4.41-.04-.67-.76-1.16-.88-1.87-.31-1.75,1.02-5.68-.3-6.65-1.66-1.23-2.97,2.46-4.39,3.4-.82.55-5.71,1.99-6.74,2.12-3.19.4-3.19-1.31-5.02-2.35-.67-.38-1.76-.31-2.03-.54ZM145.58,329.18c-.22-.13-.39-.78-.94-1.12-2.01-1.24-4.24-1.83-5.71-3.83-.72,3.15.14,5.89-.01,9.06l-1.39,10.92c1.4.35,3.16,0,4.47.37,1.12.31,2.11,1.29,2.83,1.41.84.14,2.06-.47,3.16-.43,10.22.37,14.71,3.12,21.45,10.45.21.23.05.92.26,1.11.3.26,1.08,0,1.22.14.34.34-.2,1.75.13,2.23.18.26,1.25.18,1.68.65,1.37,1.51,4.38,9.38,5.24,11.72,2.38,6.48,4.06,13.27,6.17,19.85,1.86,5.79,4.89,12.45,6.28,18.35.67,2.86.64,8,1.56,10.53.25.68,1.18.59,1.3,1.07,1.72,6.8,2.73,13.38,2.9,20.38.04,1.64,1.13,3.05,1.32,4.63.61,5,.09,11.68.08,16.74-.02,15.6-.54,31.39-.95,46.97-.04,1.5,1.24,2.67-.57,3.27,1.8,13.62-.81,27.11-1.39,40.39-.31,7.11-.54,14.39-.74,21.43-.06,2.13.62,4.89.51,7.14,2.14,1.63,4.43.2,6.55.42.6.06,3.28.54,3.95.68,1.35.29,3.25,1.95,4.66,1.01.68-.46-.02-4.46.1-5.47.21-1.68,1.11-2.97,1.29-4.29.29-2.15-1.17-6.99,2.44-7.11,2.54-.08,8.42,6.02,10.86,7.7,2.17,1.5,6.31,2.99,7.79,4.33.74.67.36,1.18.9,1.8,1.73,1.97,14.26,5.35,17.22,5.59,2.05.16,5.69-.45,7.37-.03.54.14.62,1.36,1.02,1.4,2.98-2.64,7.12-1.5,10.69-1.86,4.96-.49,9.86-1.52,14.84-1.89,1.35-1.25,7.18-.95,7.23-2.96.03-1.11-1.32-4.69-1.39-6.54-.04-.96.54-1.99.49-3.23-.15-3.3-2.17-3.62-4.95-4.39-2.97-.83-6.12-.8-9.11-1.58-3.14-.82-6.29-2.66-9.67-3.12l.47-1.38c-.85-.03-2.29.05-2.97-.43-.4-.28-.19-1.05-.42-1.26-.79-.76-2.15-1.42-2.96-2.18-.25-.24-.17-1.07-.62-1.45-.57-.48-1.98-.43-2.24-.8-.22-.33,0-1.19-.32-1.74-.45-.76-2.18-1.06-2.58-1.74-.37-.63-.24-1.58-.53-2.14-.97-1.85-3.38-2.94-4.55-4.28-1.04-1.19-2.39-3.74-2.33-5.33-2.74.33-1.39-.52-2.08-1.85-.26-.51-.95-.77-1.17-1.17-5.11-9.06-8.54-22.92-9.32-33.48-.07-.96.52-2.19.4-2.73-.12-.57-1.07-.93-1.19-1.5-.11-.54.47-1.77.41-2.73-.3-4.19-1.49-8.52-1.94-12.54-.16-1.47.7-3.16.52-4.12-.06-.33-.84-.25-.93-.63-.5-2.01-.52-6.58-.89-9.26-1.84-13-3.41-25.93-5.5-38.65-2.8-17.06-6.48-33.2-10.18-49.77-1.21-5.42-2.29-11.89-4.35-16.19-2.17-4.55-2.8-10.15-4.19-15.01-2.19.34-3.3,1.76-5.77,1.38-.61-.09-1.08-.71-1.5-.77-.99-.15-3.05.55-4.59.35-.38-.05-2.77-1.92-3.23-2.35l-.46,1.39c-.84-1.52-2.49-1.22-3.67-1.91-.53-.31-3.3-4.43-3.63-5.2-.82-1.95-1.3-4.73-1.3-6.83-2.48-.98-5.18,1.86-6.71,1.89-.63.01-1.3-.41-1.94-.43-1.86-.07-3.09.35-4.96-1.07-.13-.1-2.08-2.45-2.17-2.6-.77-1.31.14-3.37-2.8-2.89l.93-3.25c-1.16-1.12-3.35,3.13-3.57,3.27-1.46.88-5.86,1.05-7.6.71-2.48-.48-6.59-1.98-8.65-3.21ZM195.74,335.71c-.37-.3-.8-1.38-1.5-1.98-1.18-1-2.44-1.89-3.56-2.97-5.25,3.01-3.43,10.95.75,14.15.68.52,3.47,2.12,4.17,2.33,2.51.76,6.43.93,8.87.47.57-.11,2.29-.76,2.56-1.17.39-.5.22-.9-.02-1.41-.15-.32-3.72-4.11-4.32-4.65-1.86-1.68-5.22-3.41-6.95-4.78ZM256.68,337.96l-.42-.72c-4.73,3.12.9,5.32,4.4,4.64l-3.98-3.92Z"/><path d="M228.7,31.35c.28.16,5.49,1.28,6.3,1.42.88.15,1.79-.47,2.42-.17,2.46,1.16,3.84,4.24,5.27,5.19.44.29,1.21.16,1.67.43,1.25.74,4,6.69,3.75,8.3-.06.41-2.05,5.25-2.29,5.51-.16.18-3.5,2.41-3.72,2.47-1.86.47-1.57.06-4.08,1.02-9.6,3.68-21.17,1.83-31.11,1.08-8.6-.65-16.84-.56-25.21-3.55-6.01-2.15-7.64-7.05-5.02-12.88,1.41-3.14,3.37-2.13,4.8-3.57.62-.63.61-1.72,1.14-2.11.98-.71,4.17-1.2,5.25-1.74,2.28-1.12,6.67-2.78,9.48-3.51,5.82-1.51,10.91-.43,16.62-.11,2.54.14,12.61.16,13.9.98.48.31.62,1.12.83,1.24ZM243.85,43.62c-2.63-1.16-5.2-3.39-7.73-4.58-7.11-3.33-18.96-5.1-26.34-4.84-1.16.04-2.13.41-3.19.46-.48.02-3-1.03-3.06.27s2.8,1.7,3.91,3.06c2.42,2.96,2.18,5.25,2.17,8.61,0,1.01.76,2.07.21,2.98l-3.98,1.15-.45,1.63c2.37.13,4.83-.17,7.19,0,6.34.47,12.13,1.51,18.49-.11,3-1.61,6.27-1.93,9.65-2.43.74-2.47,3.76-3.17,3.15-6.21ZM185.85,40.75c-5.34,1.73-9.5,6.29-.93,6.97-1.64-2.75.82-3.57.94-4.04.2-.82-.14-2.03-.01-2.93Z"/><path d="M285.67,280.16c-.08,1.55.69,2.99.86,4.47.29,2.41-.33,10.45-.8,12.87-.37,1.9-2.7,1.6,0,4.64.05,1.64-5.26,7.23-7.43,6.29l.47,1.39c-3.93.96-6.87,1.3-10.62-.3-1.6-.68-4.7-2.76-5.89-3.89-.79-.75-.12-1.83-.44-2.3-.58-.85-1.87-.49-2.81-2.34-.87-1.72-.22-1.67.24-3.25h-1.86c.48-1.86-.7-4.12-.46-5.77s1.61-1.97,2.15-2.76c.48-.7.57-1.83,1.24-2.48.27-.26,3.97-1.46,4.19-1.45.96.06,2.37,1.52,3.9.96,1.68-.62,2.42-3.23,3.54-4.15,1.43-1.18,7.05-2.92,8.89-2.96.57-.01,4.67.79,4.82,1.03ZM283.06,286.95c-.28-.56.72-1.52.17-2.24-1.43-2.07-7.58,1.38-9.08,2.6-3.32,2.73-.66,5.5-1.48,6.65-2.12-.37-2.57,2.27-2.97,2.38-1.66.44-1.79-4.06-2.63-5.03-7.14-1.13-5.25,3.29-3.26,7.67.53,1.17,1.8,1.33,1.02,2.93,2.46-1.32,2.48,1.44,2.88,1.76.3.24,1.15.01,1.75.35.32.18.32.86.85,1.12,1.3.64,5.93.76,7.06-.23.54-.48.48-1.38.94-1.87,3.16-3.36,1.94-2.23,3.37-6.36.24-.69,1.13-1.13,1.22-1.58.06-.32-.79-1.33-.6-2.69.22-1.52,1.92-3.92,1.56-5.08-.11-.36-.74-.29-.79-.4Z"/><path d="M312.1,273.25c.13.06,2.12,1.61,2.22,1.72.79.92.27,2.35,1.86,2.78.33-1.98,2.05-2.42,3.6-3.27.74-.41.55-1.84,2.93-.47.61.35,2.74,2.96,2.9,3.63.14.6-.31,5-.48,5.81-.55,2.69-2.25,6.35-4.52,8.03-3.76,2.78-7.8,5.53-11.47,8.28-1.24.93-1.5,2.27-4.04,1.72-.67-.16-.93-2.99-1.49-3.73-1.21-1.6-3.85.06-2.57-4.17-.51-.09-1.25-.01-1.6-.48-.87-1.18-1.44-5.01-1.72-5.5-.14-.24-1.07-.25-1.26-.85-.44-1.36,1.03-7.52,1.7-8.89.09-.19,2.14-2.29,2.35-2.42.19-.12,3.93-1.77,4.16-1.81.85-.15,1.63.39,2.16.3s.93-1.06,1.55-1.23c.49-.14,3.18.32,3.72.55ZM311.23,282.81c.34-.54-1.45-4.3-2.11-4.51-.16-.05-3.16-.07-3.3.02-.2.12-.27.85-.58,1.03-1.6.92-2.24.24-3.1,2.49-.59,1.56-.92,3.22-.48,4.88.4,1.55,2.67,2.26,1.75,4.06l1.39-.46c-1.06,1.58.57,3.72.35,4.81-.12.6-1.08.86-.81,1.69,1.36.15,1.5-1.39,2.43-2.03,1.15-.79,2.86-1.04,4.17-1.82,1.95-1.16,8.02-5.93,8.9-7.76.44-.92.21-3.57.75-4.65-.93-.75-3.99,2.72-4.71,3.42-.26.25-.94.19-1.19.44-.47.46-.89,2.72-2.32,3.06-1.8.49-1.96-2.42-2.39-3.54l1.25-1.11Z"/></g></svg>