<?xml version="1.0" encoding="UTF-8"?><svg id="Layer_2" xmlns="http://www.w3.org/2000/svg" viewBox="0 0 260.07 45.98"><g id="Layer_1-2"><path d="M105.13,17.28l-.08.65c1.1.2.91.68,1.3,1.21,2.04,2.74,2.56,4.17,2.1,7.65-.81,6.01-4.66,11.09-10.32,13.09-.15.05-.12.32-.23.33-.32.04-1.38-.29-1.84-.29-.23,0-.37.25-.6.25-.34,0-1.16-.46-1.57-.59-1.41-.46-2.73-.84-4.04-1.61-.44-.26-1.35-.68-1.66-1s-2.05-3.09-2.35-3.64c-1.22-2.25-1.85-6.47-1.29-8.99.17-.76,1.4-3.73,1.88-4.2.19-.18.69-.33.74-.43.1-.17,0-.52.12-.79.06-.13,1.64-1.96,1.79-2.11.18-.18,1.06-.37,1.33-.55.5-.33,1.44-1.38,1.9-1.63.52-.28,1.59-.44,2.21-.63.41-.12.71-.55,1.16-.34.18.08.31.42.51.51.34.16,1.42-.05,1.83-.16.25-.07.43-.39.75-.42,2.14-.21,4.57,2.76,6.38,3.68ZM96.61,16.65c-.3-.14-1.08-.58-1.31-.55-.85.75-1.56,1.01-2.54,1.47-.14.07-.25.35-.4.42s-.46-.13-.5-.08c-.04.04.06.33-.03.46-.1.14-.45.1-.6.25-.13.12-.1.44-.25.58-.21.2-1.15.78-1.24.92-.08.13-.85,1.68-.96,1.95-.18.41-.46,1.9-.66,2.17s-.72-.04-.58.49l.51.09c-.07,1.23-.08,2.72.23,3.91.06.25.45,1.5.51,1.64.35.83,3.13,4.38,3.92,4.73,1.7.77,3.01,1.13,4.85,1.3.35.03.69.25,1.05.27.37,0,1.52-.81,1.89-1.07,2.4-1.69,4.86-5.24,5.25-8.21.53-4.06-2.57-7.95-5.92-9.88-.25-.15-.87-.58-.93-.6-.88-.2-1.25.2-2.28-.27Z"/><path d="M22.49,16.72c-.56.21-1.1.48-1.6.81-.23.16-.38.54-.48.55-2.53.39-4.55.32-7.07,1.34-1.62.65-2.38,1.24-3.74,2.37-1.08.9-2.13,1.83-2.95,2.95-1.4,1.9-2.55,4.52-2.6,7.05,0,.47.03,1.55.18,1.96.08.22.49.25.49.38,0,.06-.31.18-.25.41.11.37.56.51.73.77.24.35.55,1.18.78,1.55.12.2,3.3,2.71,3.53,2.83.15.08,2.19.61,2.46.66,2.93.51,6.15-1.33,9.15-1.47.39-.02.8.18,1.31.15,1.18-.06,2.59-1.36,3.58-.25-.35.27-.51.71-.82,1.01-.73.71-1.35.69-2.13,1.03-.44.19-.72.81-1.2.96-1.07.33-1.18.37-2.19.8-.79.34-3.93,1.05-4.93,1.22s-1.24-.08-2.04.3c-.31.15-1.04.04-1.36-.1-.16-.07-.15-.28-.34-.37-1.51-.68-1.01.08-1.31.36-.23.21-1.99-.39-2.29-.58-1.28-.78-2.45-1.74-3.59-2.73-3.03-2.63-4.69-6.84-3.32-10.81,1.08-3.13,3.12-6.66,5.67-8.64.54-.42,1.2-.91,1.9-1.01l-.16-.39c.38-.15.33-.58.59-.76.53-.37,2.05-.98,2.72-1.27,1.8-.77,3.94-1.68,5.63-2.22.99-.32,3.43-.61,4.45-.52,1.1.1,1.41.51,1.21,1.64Z"/><path d="M54.53,34.47c-.79,1.43-1.46,2.31-2.6,3.47-.45.46-.9.93-1.41,1.41-.44.42-1.94,1.54-2.49,1.68-.86.23-2.36.33-3.28.27-.21-.01-.42-.26-.7-.27-1.19-.04-2.08.05-3.29-.56-1.12-.57-2.61-1.62-3-2.83-.1-.3.07-.49.04-.67-.02-.12-.28-.1-.32-.24-.1-.34-.05-1.07-.22-1.33-.64-.93-.92-2.29-1.18-3.59-.67-3.26-1.03-6.65-.94-10.02,0-.28.05-.49.18-.74l-.51-.09c.04-.54-.1-1.02.17-1.5.23-.4,2.69-1.87,3-1.57.14.41-.22,1.08-.14,1.38.07.27.6,1.22.72,1.61.16.53.47,1.17-.08,1.58.87.34.4,1.48.5,2.32.14,1.26.32,3.32.53,4.45.39,2.09,1.15,3.79,2.12,5.57.12.22.06.59.22.82.14.2,2.65,1.78,2.9,1.85.43.13.76-.16,1.12-.14.53.03.93.51,1.83.33s1.13-.98,1.6-1.39c.66-.58.95-.67,1.54-1.36,1.24-1.48,2.22-3.74,2.55-5.69.15-.85.11-3.31.38-3.75.08-.13.35-.07.34-.2-.01-.24-.46-.8-.49-1.34-.02-.26.13-.51.14-.8.02-1.01-.16-2.14-.09-3.15.1-1.38.21-2.67,1.94-2.37.49,1.05,1.22,1.43,1.31,2.69.3,4.49-.14,10.05-2.38,14.13Z"/><path d="M68.57,40.36c.66-.23,1.14.24,1.59.32,2,.36,4.32.59,6.39.58.29,0,.88-.26,1.24-.21l.25.24c-.14.87.42,1.29-.2,2.17l-2.03,1.88c-1.5-.2-3.19-.02-4.65-.18-.22-.02-2.11-.39-2.22-.43-.39-.16-.47-1.2-1.13-.08-.82-.31-1.73.02-2.53-.26-.75-.26-.36-.9-.39-1.28-.06-.72-.4-1.79-.43-2.37-.04-.76.35-2.33.28-2.96-.34-3.21.2-6.37.5-9.65s.62-6.82.57-10.14c0-.66-.3-1.6-.24-2.15.02-.2.47-1.19.61-1.28.31-.2.87-.13,1.26-.2s.51-.55,1.19-.1.36,2.9.61,3.72c-.19,5.33-.76,10.6-.85,15.96-.04,2.14-.02,4.28.17,6.41Z"/><path d="M156.15,16.2c-.23.16-.62.06-.8.33l.02.88c-1.77.64-3.69-.06-5.47.35-.21,1.19-.17,2.2.16,3.37l-.35.2c.4.63.16,1.22.21,1.78.08.9.24,2.01.27,2.86.04,1.15-.53,1.35-.3,2.82.3,1.87-.09,3.27-.18,5.18-.08,1.63.07,3.21.15,4.83.03.63-.06,2.15-.64.97-.78-.09-.48.84-.72,1.21-.25.4-2.33,1.47-2.12.22-.27.14-.47.21-.65-.1.39-1.24.11-2.52.15-3.82.09-3.02.47-6.09.5-9.14,0-.77-.29-1.64-.18-2.5.04-.32.36-.23.34-.31-.08-.63-.46-1.54-.5-2.35-.06-1.25.49-2.94-.31-3.8l.31-1.92c-.28-.04-.16.41-.43.49-.21.06-.54-.18-.81-.16-.31.02-.54.39-.87.47-.9.21-2.12.1-2.94.2-.63.08-.85.78-1.73.13.12-.44-.53-1.32-.5-1.51.01-.08.47-1.06.54-1.13.11-.1,1.76-.6,2.02-.64,3.11-.52,6.66-.64,9.8-.85.85-.06,1.8-.03,2.64-.16s1.42-.57,2.44-.25c1.2.38.67,1.85-.06,2.37Z"/><path d="M126.1,17.75v4.32s-.5.17-.5.17c.55-.07.63,1.04.62,1.45,0,.23-.24.36-.24.59-.02.68.56,2.3.46,3.02-.05.36-.45.52-.46.67s.36.59.42.87c.27,1.34.03,2.55.07,3.79.02.71.58,2.37-.04,2.66.01.27.36.42.35.99-.03,1.04-.46,2.01-1.13,2.76-.23.26-1.47,1.31-1.76,1.29-.81-.07-1.02-2.37-1.04-3.07-.03-.86.28-1.98.28-2.8.03-2.93-.32-6-.52-8.97l.16-7.89c-.51-.28-.83.1-1.22.13-.19.02-.44-.16-.66-.13-.45.05-.83.36-1.35.34-.33-.01-.17-.39-.49-.37-.35.02-.62.3-1,.37-1.34.25-4.6.13-3.42-1.94.36-.64.88-.56,1.29-.79.12-.06.08-.41.46-.46.45-.06.85.28,1.16.28.35,0,1.8-.36,2.49-.44,1.81-.2,5.1-.9,6.83-.66.9.12,1.15.67,2.46.34.14-.03.11-.32.22-.34.74-.1,2.51.3,3.43.13.56-.1,1.64-.92,2.04-.13.47.93-1.01,2.15-1.41,2.91-.89-.02-1.79.26-2.64.32-.65.05-1.59-.16-2.27-.04-.78.13-1.7.81-2.57.63Z"/><path d="M192.02,39.6c.23-.33.77-1.17,1.09-1.32.13-.06,1.86-.27,2.07-.26.31.01,1.54.54,1.76.75.68.61.64,2.63.45,3.47-.03.13-1.04,2.18-1.15,2.34-.48.69-3.08,1.76-3.89,1.28-.45-.26-1.29-1.61-1.38-2.13-.05-.3-.05-1.93,0-2.25.08-.55.7-1.4,1.04-1.88Z"/><path d="M177.81,14.09c.17.94-.55.87-1.08,1.16-.13.07-.25.29-.43.4-1,.6-.58-.45-1.23-.23-.25.08-.06.46-.34.64-.31.21-.86.31-1.24.35.59,1.39-1.1.59-1.16.66v.5c-1-.27-2.08.54-3.09.83-.18.29.38,2.68.42,3.24.13,1.47.05,2.04.32,3.5.08.45.08.95.09,1.4.05.07,1.46.19,1.67.17.53-.04,1.09-.45,1.69-.5,2.14-.17,4.31-.08,6.45-.17.45-.02.91-.26,1.35-.33l.39.26c.04.47-.28.76-.58,1.06-.21.21-2.38,1.77-2.53,1.81-.28.07-.52-.12-.76-.09-.41.05-.76.55-.91.6-1.52.55-3.29.3-4.79.5-.31.04-.22.31-.35.34-.31.07-1.48-.07-1.55,0,0,.87.27,1.7.18,2.59-.04.35-.34.62-.31.79.08.47.42,1.17.47,1.86s-.18,1.61-.13,2.12c.01.12.45,1.2.5,1.25.39.33,1.33.06,1.73.06,2.07-.02,4.94-.24,6.87.58,1.05.44.83,1.58,0,2.14-.3.2-2.42,1.4-2.59,1.42-.36.03-.68-.18-.98-.17-2.41.12-5.38.05-7.82-.18-.43-.04-1.25.34-1.39-.43-.04-.22.22-.42.23-.63.11-2.57-.14-5.55.06-7.99.07-.87.19-1.55.16-2.48-.1-3.16-.44-6.47-.64-9.5-.13-1.95-.34-3.44.06-5.38.04-.18-.08-.4-.03-.56.3-.96,1.06-.42,1.54-.46,1.84-.12,4.4-1.6,6.36-1.81.37-.04.52.27.8.3.88.1,1.7.04,2.57.34Z"/><path d="M184.8.63c-.35.84-.88,1.55-1.58,2.16-1.7,1.47-5.45,3.51-6.68,5.04-.53.66-.42,1.21-1.56,1.68-.98.4-1.35-.58-1.34-1.38l-.97-.44,1.5.25c-.16-.79.52-1.5,1.07-2,1.08-.99,2.27-1.72,3.41-2.58.73-.55,2.12-1.97,2.88-2.27.48-.19,1.5-.06,1.6-.15.05-.05.18-.9.6-.93l1.08.63Z"/><path d="M212.01,16.15c.06.02.02.29.29.28.78,0,1.76-.49,2.59-.26.78.68-1.37,1.67-1.86,1.79-1.23.3-2.08.56-3.26.9-.94.27-2.05.43-3.03.38l-.33,8.9.34.18c.61-.25,1.41-.37,2.07-.43,2.3-.23,4.16-.2,6.48.17.21.03.31-.11.24.23-.29,1.35-1.47,1.27-2.43,1.73-.34.16-.49.49-.84.66-1.06.51-5.43.63-5.66.9.06.33-.31.86-.3,1.05,0,.12.24.27.24.49.02,1.85-.08,3.74.21,5.57h3.24c1.23,0,2.47.14,3.65.19,1.05.05,2.89-.36,3.82-.18.49.1.97.82,1.03.83.21.04.59-.18.87,0,.12,1.31-.55,1.93-1.67,2.39-2.14.89-7.94.77-10.39.61-.32-.02-.57-.29-.66-.29-.15,0-.39.36-.68.4-.4.05-1.06-.33-1.47-.28-.28.03-.5.39-.82.34-.91-.86-.42-1.4-.42-2.42,0-.77-.22-1.84-.2-2.5.01-.31.34-.23.34-.31-.05-.99-.98-2.19.35-2.84,0-.13-.4-.18-.47-.28-.16-.25.15-1.74.13-2.2-.08-1.72-.07-3.49-.11-5.21-.03-1.04-.27-1.96.46-2.78l-.35-.18c.56-.88.04-1.25,0-1.98-.03-.53.17-.99.19-1.5.03-.74-.31-1.52.24-2.09.17-.18.56-.26.68-.5.17-.31-.17-.77-.1-.83.04-.03.33.07.46-.04.05-.04.27-.8.67-.95.95-.37,2.93,0,3.94,0s1.32-.34,2.52.05Z"/><path d="M253.03,15.99c-.09.07-.1.25-.27.32-1.76.68-3.03-1.7-4.87.61-.41.51-1.68,3.04-1.74,3.59-.06.59.42,1.73.4,2.41.33.48,3.62-.04,4.33-.02.54,0,1.01.26,1.52.33,1.31.17,2.64.06,3.73,1.09s2.65,3.19,3.23,4.59c.83,2.04.56,2.66.51,4.73,0,.17.21.37.21.62-.02,1.03-.69,1.19-1.02,1.79-1.49,2.65-2.81,6.23-6.4,6.9-1.25.23-4.14.37-5.21-.42-.17-.13-1.79-1.88-1.86-2.01-.44-.84-.58-3.49,0-4.3.33-.47,1.88-1.5,2.41-1.1.69.51.3,3.31.52,3.98.06.18.65.52.8.73.11.15.11.47.19.52.14.09.48-.03.69.02.14.03.11.29.23.33.55.14,2.77-.46,3.16-.88.1-.11.08-.39.21-.53.32-.35.76-.91,1.01-1.16.45-.46,1.46-.35.83-1.58l.66-.18c-.41-.87.13-.98.17-1.1.25-.94.48-2.45.3-3.42-.16-.86-2.58-4.78-3.29-5.19-.16-.09-1.17-.5-1.41-.58-2.21-.75-3.29.16-5.31,0-.91-.08-2.65-.57-2.99-1.51-.08-.22-.54-2.09-.55-2.27-.02-.46.26-.83.25-1.16,0-.27-.33-.44-.29-.94,0-.07.26-1.33.28-1.39.07-.2.36-.25.49-.51.65-1.27.74-1.19,1.5-2.08.32-.38.41-1.18.96-1.61.25-.2,1.95-1.22,2.21-1.29.14-.04,2.05-.06,2.27-.04.35.04.72.33,1.09.42.71.19,1.67.01,1.98.95-.23.69-.38.9-.9,1.35Z"/><path d="M235.44,44.28c-.58.85-1.52,1.02-2.36,1.56-.63-.08-1.71-.2-2.16-.66-.05-.06-.83-1.21-.87-1.29-.6-1.28-.01-1.81.42-2.84.08-.2-.01-.56.07-.67.05-.06.39-.05.55-.19.74-.6,1.15-.97,2.2-1.13.86-.13,2.58-.16,2.84.91.05.2-.12.44-.09.61.31,1.53.33,2.31-.62,3.7Z"/></g></svg>