<?xml version="1.0" encoding="UTF-8"?><svg id="Layer_2" xmlns="http://www.w3.org/2000/svg" viewBox="0 0 312.78 424.56"><g id="Layer_1-2"><path d="M123.16,196.21c2.96-.82,2.39-5.31-.16-6.84-4.95-2.98-10.15-1-15.35-.17,2.19-4.46,8.1-4.59,12.45-3.93,2.67.41,7.62,3.85,8.89,3.75,5.15-.43,7.41-6.02,16.24-4.86,3.6.47,5.71,4.05,9.77,3.09.35-.08,3.31-4.36,4.68-5.56,2.42-2.13,8.67-6.03,11.74-6.29,1.73-.15,3.21.87,4.73.78,2.16-.13,4.69-2.7,7.51-2.02.26-3.46-.22-7,.04-10.47.88-11.87,2.98-24.06,6.7-35.32,1.27-3.84,5.9-11.7,6.28-14.8s-.54-8.98-4.44-8.47c-5.79,1.54-11.71,2.34-17.57,3.55-6.54,1.34-12.84,2.46-19.28,3.74-3.19.63-17.16,12.92-18.72,7.27-.62-4.04,4.1-3.43,7.06-4.93,2.39-1.21,3.59-3.17,5.6-4.4,5.3-3.24,12.47-2.15,18.6-3.41,5.27-1.08,12.13-4.04,17.33-4.68,16.65-2.06,34.41-1.63,50.94-3.09,5.33-.47,28.46-8.06,31.55-11.48.97-1.07,1.39-.95-.04-2-14.84-7.46-28.5-17.26-43.32-24.72-7.62-3.84-21.38-10.51-29.46-11.65s-3.47,6.26-10.23,6.83c-.84-3.74,5.8-8.47,3.82-11.84-.29-.49-8.86-4.95-10.11-5.39-10.54-3.74-.25,4.5,1.14,6.87.65,1.1,3.7,9.01,3.93,10.11,1.13,5.55-5.26,17.24-9.24,21.3-13.37,13.64-33.89,19.16-50.91,8.8-5.35-3.25-11.55-10.68-15.96-13.05-7.93-4.26-21.17-6.51-30.01-8.02-3.72-.64-5.1-3.34-10.47-1.02-.59.25-5.57,3.94-5.76,4.24-1.55,2.54.03,8.08-.1,11.13-.06,1.28.22,4.49-1.89,3.87-3.26-3.61-4.11-13.94-2.25-18.25.98-2.27,3.74-3.34,2.73-6.76-2.09-.67-5.34,1.31-6.97.53-1.82-.87-4.21-5.21-6.04-6.03-2.25-1.01-6.2-.06-6.87-.65-.4-.35-.57-4.76-3.11-4.87.06,4.68-3.35,4.22-5.55,5.97-2.92,2.33-7.5,16.62-7.5,20.53,0,3.52,2.75.09,4.47-.55,3.89-1.43,7.23-1.72,10.55-4.94,3.88,5.04.51,8.87.91,13.52.28,3.21,2.83,4.52-.2,9.21-3.69,5.73-5.22,11.31-5.69,18.8-.29,4.56,1.9,10.06,1.84,10.84-.18,2.15-6.67,8.02-.84,10.15-5.05,3.81,0,12.04-.17,13.86-.09,1-1.41,2.16-1.62,3.4-5.61,33.5-3.43,67.44-.28,100.99.32,3.35-2.02,6.89,2.06,9.92l10,.43-.42-6.07c-4.53-.6-6.87-4.31-8.65-8.36-.63-1.42-.95-3.02-.92-4.57l5.47,8.03c7.29,5.77,2.71-7.15,2.49-11.49-.37-6.97-.15-15.05,0-22.1.08-3.63,1.96-15.34.55-17.52-.61-.94-2.78-.67-2.5-1.44,5.35-4.24,2.15-12.64,3.01-17.92.78-4.81,3.96-16.51,5.8-21.3.51-1.34,1.81-4.83,3.19-5.31.13,6.62-4.41,13.08-5,19.5-.32,3.48.94,6.54.82,9.02-.83,18.21-2.67,34.56-1.77,52.99.22,4.52-2.06,13.95,2.95,14.58-3.97,7.06-.5,15.33-.95,23.53-.49,8.92-4.74,26.71-.83,34.76,1.1,2.26,4.1,3.62,5.85,1.3,1.86-2.47-.33-8.44,2.42-7.59.89.27,2.67,7.75,5.5,8.01-.53-7.32,2.2-14.32,3-21.52,3.89-34.67-4.96-67.63-.76-102.82l5.76-12.74c.27,4.42-2.18,8.48-2.88,12.62-3.61,21.18-1.66,41.74.89,62.93.21,1.71,1.12,8.5,1.93,9.09,4.48.9,8.82-2.11,13.58-2.58,6.91-.67,14.75-.04,21.96-.61,14.17-1.12,28.28-3.92,42.58-2.4l-.59-3.08-29.43-3.91,1.99,3.5c.52,1.67-7.27-3.3-8.28-3.72-2.97-1.25-7.8-3.23-10.72-4.29-4.48-1.62-9.28-2.55-13.71-4.36l-4.29,3.86-1.63-3.88-12.39-.13v-2.98c1.16.02,2.34-.09,3.51-.05,15.74.42,27.52,7.11,42.09,8.98,10.13,1.3,21.38.91,31.74,3.28,2.72.62,7.82,4.88,10.44,5.57,7.36,1.95,11.2-2.39,17.13,6.88,5.59,8.74,7.04,35.02,6.79,45.71-.2,8.7-2.94,17.75-2.68,26.23.35,11.31,4.14,24.42,5.04,35.98.71,9.05-1.78,19.33,2.69,27.57,8.04,5.61,7.45-17,7.32-20.57-.06-1.67-2.56-9.28.5-9.49,3.67-.25,5.24,11.58,6.47,14.52,1.78,4.26,3.64,5.52,7.87,7.14,7.44,2.86,21.47,2.35,29.45,1.06,1.08-.17,3.44-.56,2.74-2.22-1.07-2.54-8.55-5.32-10.94-7.08-17.84-13.08-18.04-23.83-23.56-43.48-1.43-5.09-4.03-10.89-5.24-15.78-2.38-9.68.42-19.01.76-28.69.41-11.58.95-34.42-4.82-44.3-3.05-5.22-8.11-1.91-11.65-4.36-2.23-1.54-1.6-4.33-2.83-5.69-3.69-4.07-26.53-3.62-27.77-5.25l4.04-6.97,46.27,4.2c6.24,2.31,10.94,7.11,16.68,10.34,2.02,1.14,4.28,1.11,5.99,2.01,3.44,1.82,8.87,16.35,10.36,20.66,6.55,19.02,9.86,45.98,10.35,66.16.13,5.25-3.54,13.36,5.37,11.68l4-30.02c6,.98,5.25,8.71,6.45,13.05,2.49,9.03,12.02,14.09,21.03,13.97,8.36-3.48,25.48,1.54,23.55-12.02-13.69,1.83-23.24-13.08-29.05-23.48-15.64-28.02-18.67-68.08-47.67-86.41-4.95-3.13-21.57-9.51-27.14-9.98s-14.68,3.71-19.09-2.89l.87-5.31c3.8.57,3.35,4.8,7.71,5.79,4.72,1.06,8.45-1.35,12.72-.75,2.93.41,14.68,3.46,17.57,4.49,39.37,14.05,40.13,63.35,59.24,93.86,4.04,6.46,13.67,20.9,22.28,19.73,2.56-.35,2.95-3.29,5.54-3.03,2.71,5.7,2.62,10.85.21,16.71-3.52,8.56-7.77,4.14-14.65,5.36-2.09.37-4.34,2.23-7.31,2.69-8.61,1.35-15.98-.76-23.19-5.31l-8.06-14.44c-.79,5.07-.01,14.55-1.56,18.96-1.95,5.56-12.38,7.03-13.2,2.42l-.26-31.89c-2.44-16.77-4.44-32.95-9.96-49.08-1.01-2.97-5.05-13.6-6.57-15.44-1.99-2.41-4.35-2.02-6.44-3.57-3.1-2.28-4.86-5.1-8.74-7.27-7.1-3.98-12.93-3.09-20.53-4.48-10.68-1.96-20.55-4.96-31.8-3.71l1.26,2.23c5.51,1.5,14.95.68,19.81,2.21,2.39.75,5.4,4.51,8.25,5.76,2.58,1.12,5.74,1.06,7.96,2.05,6.33,2.82,9.25,24.63,9.38,31.11.28,13.65-2.99,33.47-1.53,46.1.8,6.95,6.12,23.25,8.61,30.41,5.93,17.05,11.96,24.65,27.95,33.08,4.29,2.26,7.67,0,6.31,7.6-1.04,5.82-3.21,3.88-6.45,4.09-11.38.74-19.13,1.8-30.24-.32-2.67-.51-5.48.26-8.05-.95-2.99-1.41-3.3-5.79-6.23-7.27.92,3.37-1.31,14.79-3.98,16.55-.34.22-6.74,1.38-7.68,1.42-2.5.11-3.84-1.09-4.33-3.49-2-9.91-.39-20.97-1.04-30.99-.54-8.46-3.36-17.74-3.99-26.03-1.48-19.54,3.35-37.9.89-58.92-.3-2.59-1.54-5.03-1.91-7.6l-7.1,5.38c-8.14,4.84-17.77,7.79-27.36,7.66-5.79-.08-11.4-4.43-17.56-3.04-2.17,2.17,4.71,35.58,5.05,41.49.79,13.55-2.77,27.49-3.09,41.03-.25,10.5.57,21.23,2.55,31.55,2.25,4.22,22.14,2.56,27.55,3.47,5.79.98,20.3,4.54,15.02,12.87-.23.37-5.64,5.46-6.31,5.96-.83.62-13.04,4.83-14.72,5.26-10.96,2.84-21.48.73-31.39,1.82-9.39,1.04-17.26,2.31-27.22,1.69-4.5-.28-26.97-3.67-29.42-5.6-5.15-4.06-2.05-8.61,2.94-10.96,3.69-1.73,23.38-7.06,27.53-7.49,3.28-.34,9.59,1.1,11.59-1.42,1.84-2.32-.07-15.86-.14-20.15-.32-20.57-1.3-41.28-2-61.95-.27-8.17.94-20.29-.2-27.82-.15-1.02-1.19-4.31-1.69-5.06-2.2-3.3-17.01-.92-21.54-1.72-1.37-.24-7.06-3.63-5.54-4.96,3.46.19,7.09,1.57,10.5,1.81,2.25.16,8.56.29,10.96.23,2.74-.06,6.92-2.35,9.59-.58,2.99,1.98,1.76,16.07,1.95,20.04,1.32,27.28,3.33,55.34,2.19,83.06l1.83,17.99c-2.59,7.34-11.67,4.76-17.51,5.53-6.84.9-16.01,3.14-22.49,5.53-1.25.46-4.46,1.11-4.02,2.96,2.43,5.39,25.79,5.28,31.51,5.52,13.6.57,30.4.6,43.92-1.12,4.97-.63,22.14-4.49,24.69-8.33,1.82-2.74,1.39-4.18-1.34-5.79-10.67-6.3-27.73-2.08-39.34-5.69-3.15-2.5-1.59-19.07-3.4-23.61l-.05-10.04c1.58-18.71,4.64-35.06,1.78-53.73-.27-1.78-1.37-3.41-1.65-5.35-1.44-9.95-1.74-20.31-3.93-29.97.73-1.44,1.9-1.52,3.34-1.56,5.84-.16,14.83,1.95,20.97,2.13,11.21.34,20.08-.69,29.06-8.05,4.68-3.84,4.32-6.07.94-10.94-5.91-8.5-12.1-6.23-20.86-3.99-8.55,2.19-4.26-.02-11.18-.99-5.05-.71-19.97-.34-24.73,1.12-1.5.46-2.06,2.43-4.21,2.8-9.07,1.56-19.01-.14-27.91,1.11-4.5.63-11.94,1.55-12.52,6.46-1.7,14.3-.36,29.08-3.19,43.88-2.21,11.54-7.38,2.22-9.31,2.63l-4.05,4.01c-13.22-4.77-6.2-20.39-10.5-30.63-3.65-.28-6.55,1-10.48.49-19.61-2.52-6.59-13.98-.54-23.48-.39-7.97-2.46-16.08-3.03-23.97-1.86-25.69-2.03-51.59,0-77.04.17-2.16-.06-4.35,0-6.5l-7.01,2c-.48.29,2.12,5.78-.49,5.97-3.09.23-4.77-7.21-5.74-9.25s-2.91-2.93-3.56-5.45c-1.38-5.35-2.17-13.63-.27-18.86.88-2.41,3.26-4.51,3.56-7.33.33-3.11-2.88-7.13-2.57-11.62.27-3.8,3.53-6.6,3.89-9.23.24-1.79-.95-3.53-.77-5.64.25-2.89,1.15-6.8,1.95-9.65l-3.02.66-1.98,4.85-2.01-1.03,2.95-8.42c-17.97-7.1-3.63-24.22,3.04-34.6-2.3-3.08-6.84-1.11-8.91,1.08-2.68,2.82-2.88,7.42-4.07,10.93-.58,1.73.35,1.94-2.5,1.51-.85-3.91,4.4-15.44,7.54-17.47,4.38-2.84,6.72-1.55,10.47,1.43,2.92-4.9,4.5-9.19,9.95-12.04,1.93-1.01,5.45-1.26,6.58-2.42s.79-3.17,1.54-4.46c3.07-5.27,8.5-4.71,12.8-7.21s8.31-6.29,11.73-9.28c4.73-4.12,16.74-6.32,22.3-3.46,1.82.94,2.73,3.68,5.62,2.88-1.02-3.94,7.51-6.5,10.6-6.92,7.03-.95,12.86,2.18,19.09,2.65,4.25.32,7.49-3.69,14.33.8,1.47.97,1.58,2.85,2.78,3.46,1.79.92,5.08.74,7.25,1.51,1.98.7,4.68,3.14,5.68,3.31,1.34.23,3.08-1.56,4.88-1.77,2.92-.34,10.22-.51,12.94-.03,2.43.43,2.89,2.44,4.59,3.42,1.51.87,3.34,1.03,4.9,2.11,7.53,5.18,1.66,12.14.04,10.47,2.07-5.68-1.19-8.91-4.62-3.06l-6.38-.93c2.43,4.08-4.5,6.52-.35,8.85,7.08-1.7,12.44,5.42,18.86,4.17,2.66-.52,4.07-6.23,10.45-7.58,7.56-1.6,13.84-.65,19.49,4.63,1.28,1.19,7.12,9.35,7.99,11.02,3.17,6.1.98,11.66,7.33,15.9,11.66,7.78,32.32,17.81,45.39,24.47,2.93,1.5,3.63-.55,5.42,4.56,2.18,1.2,2.89-4.77,1.48-5.99,3.03.48,4.46-.82,6.48-2.73l2.44.83c.85,3.51-.65,9.58-3.42,11.89-1.73,1.44-4.1.59-5.47,2.51-.1,1.51,5.8,3.79,1.46,5.49-5.38,2.11-1.3-9.7-5.98-10.02-6.04-.42-22.63,9.02-30.26,10.8-15.55,3.62-31.04.39-46.23,4.31,1.89,8.4-2.91,15.28-5.33,23.18-1.64,5.34-5,14.31-5.66,19.36-1.66,12.82-.77,27-3.08,39.94-.54,3.05-3.85,3.22-4,2,1.27-15.67-4.51-7.53-12.64-3.64-2.78,1.33-8.86,2.79-10.72,4.06-1.06.72-1.04,4.25-3.16,5.08l-3.02-3.03c-5.57,3.3-10.52,5.19-16.99,6.03-11.15,1.46-25.5,1.45-36.73.73-3.32-.22-6.57-1.82-10.29-1.81-3.42.01-14,2.5-15.89,2.02-1.62-.41-1.9-2.44-1.58-3.89,6.78-1.51,15.69-9.41,22.72-6.3,2.83,1.25,2.73,4.52,5.77,4.98l6.48-4.73-1.99,5.99c1.29-.48,2.97,1.01,3.5,1.01,3.72,0,13.3.75,16.01,0ZM113.66,4.1h-9.01s0,3.99,0,3.99l9.01-1v-2.99ZM91.9,7.35c-1.54,1.63-2.11,6.36.27,7.75,1.47.39,10.23-5.65,10.27-6.48.25-4.85-8.08-3.88-10.54-1.27ZM131.67,6.1c-2.7-.75-12.27-1.69-10.89,3.33l3.24,2.59,7.65-5.92ZM81.39,8.33c-6.62-2.58-15.57-1.87-20.75,3.27,1.74,3.51,4.5,1.53,6.09,2.05,2.78.91,9.89,2.57,10.94,3.01,1.3.54,1.8,3.03,3.96,2.44-.41-3.81,2.27-7.35-.24-10.77ZM109.64,10.1c-1.95-1.93-16.52,9.06-16,11.49,4.8,4.8,10.02-5.28,15.07-6.92l.93-4.57ZM118.65,10.1c-1.43-1.52-11.58,5.45-.67,3,1.17.11.77-2.89.67-3ZM126.66,17.1c.52.53,12.83-2.44,13.98-4.5.08-2.85-15.94-2.46-13.98,4.5ZM86.64,19.1c5.23,1.26,4.62-5.34,1.48-6.99-2.58-1.36-1.18,6.08-1.48,6.99ZM114.65,20.1c-.79-.16-1.97-1.74-3.02-.53l-.98,4.53c3.2.4,3.16-2.55,4-4,3.76.76,8.23-.14,8-5-5.81-.79-5.87,1.32-8,5ZM159.68,15.11c-1.86,1.86,4.01,4.43,3.98,1.5-.01-1.04-3.37-2.11-3.98-1.5ZM54.61,19.11l-2,.49-.99,2.5,2-.49.99-2.5ZM140.49,20.3c-1.75-2.53-6.66,1.62-8.15,2.98-.97.89-2.15.91-1.67,2.82,2.31,2.17,6.61-1.13,6.93-.94.18.11.49,3.05,2.57,2.92s.92-6.93.32-7.79ZM78.63,26.1c2.62-3.08-10.1-5.36-12-5.99-.08,6.49,3.53,4.02,6.54,4.38.85.1,3.5,3.9,5.46,1.61ZM47.61,22.11c-1.29-1.25-9.49,1.6-9,4.99l8.89-1.1.11-3.89ZM160.57,29.02l.67-2.94c-3.46-4.85-8.01-1.1-11.07-1.42-1.21-.13-3.27-2.47-5.5-1.55l2.21,5.33,13.69.58ZM62.62,25.11l-2.5-.99-1.48,1.48c1.06,1.55,2.14,1.73,3.98,1.5v-1.99ZM89.64,58.14c-.07,1.36-3.09,2.05-1.01,3.5.61.42,11.56,3.8,12.99,4.07,1.06.2,2.04.83,3.09,0,1.68-6.41,2.11-12.61,5.56-18.48,2.24-3.8,7.1-6.19,8.15-9.86.3-1.07,1.1-7.71.76-8.27-2.14-3.48-3.34,3.36-5.52,1.48l-.98,1.02,1.81,5.33c-3.19,1.46-6.98,9.28-11.24,8.14-2.15-.57-1.78-10.3-3.61-12.97-5.45.99-2.72,7.23-5.5,11-.76,1.03-2.76.96-3.94,2.06-3.46,3.22-8,11.51-.55,12.98ZM105.64,30.11c-3.04,1.4-2.85,7.88-.49,9.99l.49-9.99ZM123.3,30.22c-7.7,9.59,11.09,3.99,11.34,1.4l-11.34-1.4ZM185.77,38.03c2.64-.34,5.35,3.75,6.57,4,.77.16,2.76-1.69,4.81-1.97,3.36-.46,13.19-.09,15.08,3.05,1.47,2.43-.75,6.66,1.47,8.53,1.27,1.07,6.64,2.34,6.89.02-.61-7.87-13.57-21.67-21.27-21.49-5.02.12-8.84,4.1-13.59,5.01l.03,2.86ZM48.61,31.12c-.97-.87-7.86.94-7,3.99,3.13.39,6.92-.11,7-3.99ZM68.62,31.12h-3.99v.98h3.99v-.98ZM76.63,31.12h-3.99s1,3.99,1,3.99l-3.99,1.5c4.99,3.87,4.08.95,5.35-1.11.54-.88,2.73-.82,1.64-4.38ZM91.65,34.11l1.97-1.5-1.49-1.5-.49,3ZM33.6,32.12c-3.53-.5-6.45,1.09-5.99,4.99,3.53.5,6.45-1.09,5.99-4.99ZM82.62,32.12c-2.06-1.58-4.15,5.18-3.86,6.29l2.35,2.45,2.58-1.39-1.07-7.35ZM64.62,34.12c-1.25-.66-3.49,1.6-3,1.98,1.25.66,3.49-1.6,3-1.98ZM107.65,38.11c1.47.32,2.09-.42,2.98-1.5l-.99-2.5c-1.99.53-2.24,2.13-1.99,4ZM126.77,68.02c-1.11-5.98-5.05-10.61,1.54-14.75,3.31-2.08,17.26-7.24,20.86-7.25,7.3,0,18.64,4.04,25.89,6.25.94.29,2.57,1.25,2.61-.65,0-.44-3.81-6.58-4.57-7.42-9.02-9.88-31.6-13.72-42.8-5.96-3.46,2.4-4.08,8.19-9.14,1.88-7.28,6.14-14.34,18.36-9.72,27.72,1.09,2.2,11.61,12.7,13.88,14.13,5.44,3.42,18.24,5.51,24.4,4.74,4.9-.62,14.88-6,18.88-9.16,5.68-4.49,15.05-16.76,8.59-23.41-1.87,1.51-1.66,4.09-3.02,5.97-3.17,4.39-27.42,10.42-33.31,10.8-5.22.34-8.95-3.13-14.09-2.89ZM90.63,36.12h-1.99v2.99h1.99v-2.99ZM53.62,42.11c1.84.23,2.92.05,3.98-1.5l-1.48-1.48-2.5.99v1.99ZM67.62,40.12c-5.06-1-14.7,4.42-9.77,9.76,2.72,2.94,6.48-3.84,8.5-6.47.7-.91,1.99-.56,1.26-3.28ZM72.96,48.45c1.21-1.51,5.72-2.33,3.19-6.36-1.63-2.59-10.17,4.94-11.54,6.51-2.21,2.52-3.14,5.12.28,6.78,5.02,2.43,5.4-3.59,8.07-6.93ZM85.64,43.13l-8.45,5.05c-7.98,7.96-3.6,9.84,5.44,11.95.57-3.31-1.09-3.88-3.91-4.08-.79-5.56,3.93-9.02,6.92-12.92ZM27.6,44.12c-2.04-1.93-9.27,5.2-9,6.49.96,4.56,10.73-4.84,9-6.49ZM148.67,65.12c2.06.15,4.04.03,6.06-.43,2.76-.63,17.6-6.18,16.94-9.05l-22.49-6.52c-4.3,3.37,4.98,3.29,5.49,4.02-1.59,1.83.19,4.5-.47,5.97-.8,1.77-4.82,3.73-5.54,6.02ZM25.6,54.13c-3.68-.99-2.92,5.6-3.16,5.86-.5.52-2.65.63-3.81,1.66-3.96,3.52-4.49,11.57-4.02,16.49,2.21.2,4.27.03,5.51-2l5.49-22.02ZM137.62,62.08l.91-4.49-2.35-1.46-4.5,4.5,5.94,1.45ZM145.66,56.13h-2s1.51,1.99,1.51,1.99l.49-1.99ZM11.47,66.25l-4.88-1.11,2.01,11h2.98s-.12-9.89-.12-9.89ZM36.6,75.14l-17.08,10.68c-.95,2.6-1.88,4.96-1.97,7.8-.07,2.16-.48,2.93,2.03,2.53,1.71-5.36,6.67-12.39,13.02-12l-7.51,6.99c-2.01,2.59-5.61,6.11-1.98,9.01,2.63.57,4.77-6.15,6.05-7.94,3.9-5.5,8.38-8.78,7.44-17.06ZM287.75,84.15c-2.02-2.03-6.88,5.15-5.99,5.99,2.65,1.29,7.52-4.46,5.99-5.99ZM32.6,95.16c-1.51-1.51-4.26,2.98-1.5,2.98.64,0,2.08-2.39,1.5-2.98ZM17.58,113.16c.52-3.79,5.31-8.58,1.5-12-2.66-.57-7.08,12.45-1.5,12ZM31.6,102.16c-1.86-1.86-4.43,4.01-1.5,3.98,1.04-.01,2.11-3.37,1.5-3.98ZM25.61,114.16c3.68,2.21,6.79-6.16,3.5-5.98-.35.02-4.24,5.27-3.5,5.98ZM22.59,116.17c-4.22-.76-5.53,3.37-2.48,5.99l2.48-5.99ZM28.6,120.17c-2.83-1-5.66,6.28-4.99,6.99,2.76.82,6.04-5.85,4.99-6.99ZM23.59,136.18c-2.2-1.83-2.55,3.74-3,4.62l1.93,1.45c1.59,2.25-6.99,3.6-3,8.52,2.77,3.25,9.62.66,9.95-3.27.13-1.55-3.02-3.74-4.06-5.62-.73-1.31-1.58-5.52-1.81-5.71ZM172.68,178.21c-1.38-1.36-13.59,3.96-13,8l12.38-4.93.62-3.06ZM148.61,188.28c-6.26-3.38-16.48-1.33-18.95,5.92,6.46,2.46,12.66-1.89,18.97-3.05l-.02-2.87ZM93.64,194.2c-1.39-4.72-12.22-3.69-13,1.01l13-1.01ZM26.77,277.11c13.28,5.8,21.93,1.48,18.41-13.91-3.23-4.85-22.4,7-18.41,13.91Z"/><path d="M140.55,207.34c5.29,5.88-7.09,26.58-12.16,26.66-5.65-1.42-13.7-2.02-15.3-8.71-1.47-6.13.26-14.48,7.3-15.93,3.27-.68,4.86,2.04,7.69,1.86,3.63-.23,7.95-5.58,12.47-3.88ZM138.66,211.22c-5.35-.42-9.14,3.36-12.5,6.99l-4.13-5.86c-11.34,2.64-7.31,16.31,3.4,17.7,7.51.98,14.31-12.26,13.24-18.83Z"/><path d="M175.69,210.22c-1.27-1.46,6.42-9.85,3.51-15.02-1.02-1.82-1.61-.24-2.52.51-2.62,2.12-3.72,5.59-6.63,7.45-2.65.58-4-6.63-7.37-5.93-2.76,6.45,2.73,12.18,9,13.01-1.05,3.54-7.31,1.33-9.39-.12-6.77-4.74-3.07-18.89,3.41-15.42,1.62.87,2.42,5.05,4.47,4.53,8.62-11.34,16.61-10.82,10.19,5.18-.3.75-3.12,7.61-4.67,5.82Z"/><path d="M91.63,216.22c-2.56,2.45-5.35-6.92-9-4.99-.91,5.69,3.58,10.96,9,12.02l-1.64,2.91-.83.1c-7.19-1.41-12.78-10.86-8.62-17.36,3.86-6.03,12.1,6.36,11.08,7.33Z"/><path d="M94.95,240.58c.67-.56,1.55-.72,2.2-1.32l4.51,6.54c.64,1.08,8.65-2.17,6.98.93-.81,1.5-6.63,2.82-8.28,2.37-2.4-.66-4.44-5.85-5.22-5.84-6.42,8.8-15.94,8.09-13.5-5.02,3.25.78.71,4.21,1.86,5.56,4.58,5.37,8.54-.8,11.44-3.22Z"/><path d="M94.64,223.24c3.56.38,8.73-7.78,9.05-10.48.87-7.33-7.84,3.85-9.05,2.46-2.26-3.86,8.44-10.52,10.46-9.99,2.59.68,1.61,7.5.77,9.72-1.07,2.82-10.08,17.12-11.23,8.29Z"/><path d="M73.61,144.18c1.83,4.01-.37,7.6-.87,11.62-.61,4.92,1.41,10.6-4.11,13.39,1.38-7.71,2.69-15.59,2.99-23.53.06-1.6.68-2.57,1.99-1.48Z"/><path d="M245.72,354.31c-2.18,2.08-6.04-4.06-4.99-6,1.21.39,6.08,4.96,4.99,6Z"/></g></svg>