<?xml version="1.0" encoding="UTF-8"?><svg id="Layer_2" xmlns="http://www.w3.org/2000/svg" viewBox="0 0 309.74 453.27"><g id="Layer_1-2"><path d="M248.95,408.83l-2.38-.04c-.94,12.16-5.05,23.85-7.69,35.73-.74.97-10.3,3.13-10.97,2.42.17-5.27.22-11.37.89-16.56,1.26-9.71,3.35-16.27,3.17-26.85-.5-29.22,1.11-60.08-2.33-89.36-1.87-15.9-4.17-38.5-16.76-49.78-8.05-7.21-13.18-5.45-22.32-8.52-5.64-1.89-3.07-2.61-10.06-2.9-2.12-.09-6.97-1.9-9.9-2.29-4.37-.59-8.85-1.07-13.28-.91l8.79,12.7c8.45,18.38,8.69,39.25,7.43,59.1-1.25,19.61-5.38,41.32-4.09,60.9.56,8.45,4.31,14.7,9.79,21.04,4.45,5.14,10.01,7.93,16.22,10.56,3.54,1.5,13.66,3.94,15.75,5.35,4.85,3.29-.32,10.17-.72,13.61-.37,3.17.52,8.97.28,12.56-.35,1.25-2.38,1.93-3.6,2.12-14.34,2.22-29.74,1.94-43.74,4.13-1.02.16-1.69.87-2.47,1.44-1.18-.62-1.69-1.43-1.98-2.72-1.43-6.34-.26-13.41-1.66-19.84l4.05-.41c-7.69-3.34-8.59-11.07-11.28-17.93-.42-1.06.35-1.42-1.69-1.14l-.93,36.39c-1.32,1.91-18.81.21-10.85-6.35,1.69,1.4,7.43,4.89,8.4,1.88l2.56-46.53c1.28-.28,1.68.39,2.44,1.21,2.05,2.24,1.96,10.08,3.01,14.03.73,2.73,3.79,11.55,6.14,12.59,1.34.59,2.45-.18,3.26.05,11.76,3.36,26.82,3.09,39.11,2.29,2.4-.16,6.02,1.47,8.51-1.38.58-2.58-10.76-6-13.16-7.11-3.86-1.79-10.85-4.76-14.02-7.08-2.65-1.94-13.47-16.53-14.47-19.67-.63-1.98-1.16-9.95-1.28-12.46-.08-1.73.89-3.46.79-5.57-.13-2.51-1.77-4.51-1.7-7.29.2-7.77,2.5-20.48,3.28-29.24,3.21-35.93,7.28-57.01-16.23-86.83-1.89-2.4-1.99-5.61-6.37-6.2l-.17-2.62,2.09-1.09c5.26,6.12,10.75,5.55,17.82,6.27,2.91.3,6.66,2.43,8.97.04,1.77-1.83.95-3.61,1.39-5.94.13-.68,1.12-1.34,1.24-1.98.21-1.08-1.25-2.48-1.42-3.94-.36-3.12-.6-8.87,1.97-10.94,3.81-3.08,6.8-.06,9.59-.91,1.06-.32,2.35-2.17,3.55-2.99,7.33-4.97,11.01-7.04,20.56-5.81l-.81-29.22c-1.1-1.15-27.21,4.95-31.33,5.59-5.79.91-12.21,1.45-17.76,1.86-8.36.62-19.74.55-27.41,3.27-1.04.37-1.71,1.83-2.73,2.03-.74.15-1.7-.62-2.7-.19-4.43,1.9-1.27,6.18-1.12,9.06.14,2.6-1.57,10.53-4.2,11.64l-2.83-1.62v2.44c-.84,1.4-7.49-6.94-8-7.83-1.61-2.79-2.6-6.45-.54-9.23,2.6-2.65,6.8,2.63,10.14.82,1.1,2.56-.06,3.97-2.02,5.68-2.87-6.67-9.81-4.77-5.61,2.37,6.18,10.5,13.38.35,10.44-8.01-1.59-4.53-4.48-2.87-7.98-3.38s-6.91-.95-10.22-1.95l-.82-2.82c2.5.56,5.38,1.72,7.81,2.19.84.16,2.06-.65,3.09-.54,1.92.2,4.21,2.69,7.17,2.25,1.35-.2,6.43-2.8,5.07-4.73-2.73-3.89-9.73.57-13.41.02,4.16-5.12,10.07-4.99,15-.8,1.42-1.19,1.7-3.1,2.84-4.48,3.72-4.5,13.75-3.54,18.96-2.09,1.52-.44,1.51-2.76,2.39-3.75,3.41-3.87,11.35-4.31,15.79-2.11,1.31.65,1.24,1.93,1.8,2.28,3.86,2.43,10.3-8.37,16.45-6.74,1.94.51,3.16,3.11,5.87,3.15,4.61.07,5.37-6.05,11.28-1.56,1.63,1.24,1.1,3.17,4.55,2.31l-.8-34.08c1.55-.25,2.18.63,2.43,2.03,1.35,7.46-.89,18.78-.02,26.8.31,2.84,2.35,4.14,2.49,5.71s-1.44,2.8-1.71,4.77c-.81,5.95-.16,22.26,1.04,28.27,1.83,9.18,11.19,6.2,17.22,7.12,10.94,1.68,16.25,14.72,18.07,24.12,3.55,18.38,4.54,37.12,5.91,55.75,1.77,23.93,4.89,40.58,12.95,63.32,5.37,15.14,16.83,39.22,32.7,45.19,2.7,1.01,7.14.23,7.77,4.42.1.68-1.51,2.48-1.59,4.71-.31,8.52,5.8,20.52-5.6,25.16-10.36,4.21-26.66,5.95-37.68,5.24-3.13-.2-7.03,2-7.73-2-1.28-7.33-.38-17.63-2.32-24.45-1.23-4.35-5.78-8-5.86-13.22ZM194.64,184.03c-3.17-8.64-11.12-3.55-15.99.65-.91.79-2.25.87-1.85,2.6l17.84-3.25ZM197.89,183.22c3.08-.03,6.85-.22,8.91-2.84.05-2.51-9.74-.81-8.91,2.84ZM171.69,183.46c-.57-.41-5.84-1.77-6.74-1.81-3.49-.14-6.8,3.06-8.87,5.6-1.81,2.23-3.14,3.88.81,4.13,2.77-1.58,16.11-1.92,16.64-4.57-.26-.85-1.27-2.93-1.84-3.35ZM151.44,188.28c-2.7-2.1-16.74-.38-16.84,5.49,3.03.41,5.73-1.12,8.6-1.54,3.19-.47,7.24,1.19,9.07-2.09l-.83-1.86ZM200.48,218.28l-1.6,4.31c3.79,4.83,9.9,1.05,11.16-4.03-2.51-2.82-6.61-1.37-9.56-.29ZM214.76,218.29c-.84-.46-2.08-.13-3.05-.16-.17,6.52-4.78,10.9-11.39,9.71.75,7.79-1.52,11.96-9.73,10.9-1.77.89-2.16,5.24-3.69,6.92s-6.64,1.85-1.64,4.14c6.67,3.06,19.33,2.79,23.14,5.26.92.6,1.37,2.35,2.44,3.24,1.94,1.62,4.31,2.64,6.16,4.39,8.39,7.96,12.59,31.52,14.16,42.63,4.5,31.74,3.11,62.94,3.21,94.97.02,7.32.79,13.24-.08,20.95-.69,6.14-2.26,12.62-3.16,18.78.16,2.46,2.75,2.57,4.55,1.27,1.11-.81,4.24-10.79,4.83-13.02,2.94-11.07,3.75-23.3,6.44-34.13.36-1.44.34-3.04,1.65-4.02,4.96,4.02,1.66,8.11,1.97,12.56.13,1.95,3.27,10.34,4.56,11.74.44.48,3.9,2.65,4.49,2.87,1.88.68,3.08-.18,4.67.13,9.64,1.87,11.94.87,20.84,1.03,5.22.09,10.38.99,15.86-.29,1.62-.38,2.97-1.16,3.99-2.49-1.72-2.49-4.84-2.63-7.24-4.11-18.99-11.69-26.79-33.5-33.07-53.75-4.87-15.72-10.53-31.14-11.31-47.76-.71-15.14-.73-29.95-2.82-45.21-2.04-14.89-3.51-37.62-21.62-40.92-4.6-.84-6.1,2.62-11.58-2.15-1.1-.96-2.38-3.4-2.57-3.5ZM197.07,221.35c-1.28-1.85-5.32,4.46-6.19,5.61-1.27,1.68-5.36,3.88-2.22,6.46,3.6,2.95,7.23,4.14,9.19-1.13,1.83-4.9-1.04-6.28-.78-10.94ZM180.76,235.07c-.33-3.05,9.24-8.74,3.56-10.35s-6.25,6.76-5.9,10.44l2.34-.09ZM180.85,244.08c4.87.85,8.67-6.03,5.27-9.72-2.95,2.4-4.58,6.03-5.27,9.72ZM305.61,423.59c-1.59-1.6-10.46-1.03-13.19-1-6.2.07-14.2,1.09-20.31.85-4.83-.19-9.82-2.64-14.99-1.66-.75.75,1.31,19.57,2.03,21.1.33.69,1.05,1.24,1.79,1.46,3.49-.47,7.18,1.73,10.3,1.71,3.77-.02,13.54-2.4,17.72-3.39,3.8-.9,15.59-3.09,16.68-6.85.66-2.25,1.6-10.59-.02-12.22ZM163,431.92c-.56,3.32,0,9.27,0,12.98,0,.57,1.35,1.1,2.03,1.22,3.32.6,12.46.24,16.23,0,5.95-.39,15.7-1.64,21.55-2.79,2.96-.58,5.28-.77,5.68-4.06.28-2.36.77-7.24-2.07-7.76-5.83-1.07-16.19.3-22.76.04-2.82-.11-18.47-2.42-19.73-1.54-.09.67-.86,1.49-.93,1.91ZM160.97,434.78c-1.52,0-2.01,6.43,0,7.27,1.52,0,2.01-6.43,0-7.27Z"/><path d="M186.64,195.51c2.27-1.44,5.25-.45,7.44-1.08s6.71-8.78,9.09-2.29c1.54,4.19,1.07,11.72-1.98,15.08-.36.4-5.79,2.77-6.15,2.77-4.25.05-10.71-10.03-8.4-14.49ZM201.13,193.78c-2.27-.41-2.85,2.75-4.55,3.06s-6.34-2.36-8.04.99c-2.62,5.16,10.86,16.61,8.55,3.25l2.84,1.59c2.76-2.42,2.26-5.72,1.2-8.89Z"/><path d="M136.22,429.09c-1.03,2.88,2.1,8.13-.8,9.73.62-2.97-.67-5.84-.83-8.52-.1-1.62.19-1.28,1.63-1.21Z"/><path d="M107.78,371.45l-31.95-4.9c-4.75-.81-3.39-6.97-2.54-10.54,1.57-6.69,9.23-18.24,15.9-20.61,1.78-.63,7.77-1.23,9.46-.64,2.17.75,4.43,2.96,5.95,4.66,7.82,8.74,6.54,21.53,3.18,32.04ZM93.02,338.42c-10.5,1.45-15,14-19.25,22.11.94,1.23,2.22,1.67,3.68,1.97,6.32,1.28,17.9,2.9,24.3,3.3,1.51.09,3.06.24,4.5-.36,1.97-8.38,3.2-16.92-3.3-23.58-3.23-3.31-5.32-4.07-9.93-3.44Z"/><path d="M132.17,235.97c1.17.9,4.22,11.69,3.13,12.88-5.47-.35-1.82,5.69.54,6.58,1.75.66,1.25-2.38,2.81-2.42.18,2.08-.32,4.3-2.01,5.64-3.51-2.09-6.1-4.36-6.84-8.55-.25-1.42.3-4.41-.19-5.09-.24-.34-1.88-.5-2.59-1.02-1.04-.76-2.69-2.84-3.46-2.98-1.19-.21-2.55,1.23-4.37.28-1.7-.89-3.67-6.55-5.35-6.91l-3.83,2.29c-3.08-.93-4.2-3.37-4.62-6.38-1.53-.08-1.66-.38-1.64,1.23.02,2.28,2.75,16.88,3.68,18.24l.83.81c4.79-2.77,12.82-2.08,17.03,1.61,6.92,6.07,11.6,27.81,12.55,36.94,4.17,40.06.33,80.03-.09,119.98l-1.53,16.73-2.18-1.18c.3-3.61,1.17-7.9,1.37-11.4.98-17.06.49-30.19-.03-47.02-.37-11.87,1.91-24.32,2.02-36.55.19-20.34-.11-54.22-10.57-71.75-3.63-6.08-12.71-9.09-18.06-3.64.8,5.44,2.6,11.71,3.05,17.1.33,3.94-.91,8.26-.81,12.05.25,9.24,4.14,21.01,3.1,30.62-.34,3.15-1.45,8.36-5.43,7.05l-2.89-6.44c-.79,6.39-4.75-1.22-6.48-.81l-2.1,5.98c.3,1.55,8.87,1.26,11.37,2.6.72.39,7.52,5.69,8.2,6.4,4.69,4.91,8.04,19.52,5.23,25.58-.49,1.05-2.25,1.62-2.67,3.01-.96,3.21.79,7.85-.78,11.24l1.09,1.16c3.15-.5,6-1.05,8.91.79,0,3.69,2,11.85-.67,14.45-.66.64-2.16.72-2.99,1.45-4.39,3.88-6.65,6.67-12.83,8.28-8.07,2.1-30.58,4.5-38.68,3.4-21.7-2.95-38.48-15.86-55.25-28.32-4.63-3.44-12.89-8.01-16.54-11.85-1.38-1.46-2.58-3.04-.44-4.37,10.91,1.86,22.17,5.74,33.23,6.46,9.07.59,18.99-1.69,28.26-.94,2.73-.88,2.29-10.33,3.38-13.66,1.54-4.72,8.43-13.64,12.19-17.02,4-3.59,9.02-5.53,13.3-8.66.5-1.7-2.01-4.3-2.33-6.42-1.41-9.45-.19-19.77-.86-29.16-.86-12.05-4.86-25.2-5.67-37.33-.41-6.12.77-12.15,0-18.25-3.36-.19-2,3.27-2.6,5.1-.72,2.18-2.85,3.57-2.27,6.26-4.57.69-6.21-4.62-9.72-6.5-.32,7.15,2.44,13.95,3.35,20.98l8.81-.7v4.05c-3.49-.64-8.55,2.85-11.32.39s-1.23-6.55-1.7-9.67c-1.18-7.88-1.87-11.95-2.4-20.32-.36-5.65-1.77-11.8-.81-17.44-1.62-.24-2.12.62-2.41,2.05-1.49,7.51-2.4,19.06-2.46,26.75-.02,2.68.78,7.03.72,9.78-.03,1.38-1.3,2.43-1.26,3.2.06,1.19,4.04,5.1-1.83,3.67-3.63,3.45,3.38,12.5,3.18,13.34s-2.34,1.26-2.84,2.06c-1.76,2.81,1.24,6.43,1.16,9.24-.09,3.26-2.21,8.1-2.14,11.63.03,1.4,1.14,2.33,1.11,3.05-.03.58-1.35,1.88-1.43,4.06-.1,2.77.55,10.23,4.14,10.17-3.16,4.88-1.38,8.45-.81,13.77-1.12,1.12-4.84-1.63-5.42-2.67s-.01-2.72-1.04-3.44c-.88-.62-9.77-3.66-11.37-4.05-2.25-.55-4.66-.6-6.91-1.2-2.1,3.88,3.11,5.41,2.02,9.34l-2.03.4-3.69-8.51,1.65-1.61c-.89-1.35-2.86-1.76-4.11-.88-1.78,1.26.71,5.27-2.37,4.52l-.82-6.49c-7.52,2.87-8.87-1.48-7.67-8.16l-3.66-1.66.42-2.39c-1.86-1.5-4.78-1.37-4.58-4.42l5.72-22.83c.61-23.8,4.82-46.39,3.45-70.5-.33-5.79-1.5-4.53-1.78-5.81-1.12-5.01,4.33-26.9,4.85-33.94,1.07-14.43-1.24-30.13,3.43-44.44.44-1.36,2.11-2.09,2.87-3.62,2.91-5.9,4.38-13.55,6.88-19.9,9.52-24.22,29.39-51.24,52.55-62.81,3.87-1.93,8.23-3.34,11.36-6.35l-2.43-.41c-1.2-.98,14.04-7.38,15.15-7.97,4.75-2.51,15.78-11.25,21.35-8.66,2.07.97,7.69,7.82,9.5,8.36,4.14,1.22,8.9-.15,11.62-3.47,1.38-1.68,1.81-4.35,3.27-5.66.54-.49,6.55-4.23,6.95-4.28,5.2-.56,4.08,2.64,5.15,3.44.35.26,6.26,3.15,7.57,3.81,3.28,1.65,7.68,1.87,10.76,4.66l9.27,13.45-3.23,3.22c3.69,3.51,6.25,9.96,7.88,14.84.47,1.41,2.49,7.16,2.63,7.92.39,2.12-.2,4.67.03,6.87,3.41-.03,7.07,1.17,10.36,2.22,9.83,3.14,15.46,6.44,23.95,11.75,20.69,12.93,33.43,22.91,51.3,39.57,1.23,1.14,3.15,1.7,4.18,2.72,2.53,2.49,3.52,7.61,3.51,11.09l-15.21,7.5c-2.31,4.65-1.47,11.18,4.86,10.19,6.83-1.07,5.63-4.12,7.51-8.76,1.53-3.78,2.83-3.88,2.84-8.93,3.02.36.24,10.57-.65,12.74-2.04,4.93-8.93,11-14.56,8.56-.87-.38-3.49-2.67-3.84-3.46-1.5-3.32.62-6.83.31-8.44-.47-2.44-10.92-.69-13.23-.4-9.77,1.23-22.13,4.1-31.72,4.8-4.16.3-8.42-1.06-13.01-.85-8.75.4-15.23.88-24.22.91-4.51.02-19.19,4.42-10.53-4.88,3.22,2.84,5.46.73,8.1.82,6.15.21,12.12,1.15,18.57.74,18.08-1.14,34.86-2.96,52.83-5.59,3.6-.53,13.71-.42,15.7-2.14,2.26-1.95.78-3.46,1.21-5.27.83-3.47,4.45-6.88,3.55-9.95-.24-.8-10.43-10.16-12.02-11.54-9.12-7.91-19.35-14.34-29.27-21.03-13.2-8.89-21-14.27-37.24-17.93-7.96-1.8-16.41-2.04-24.36-3.61.67,3.86-5.88,11.7-4.82,14.89,3.5,4.03,13.94,1.59,13.7,8.14-.23,6.21-7.49,6.98-12.03,8.7l-.11,3.95c-2.63.68-2.66-3.81-3.77-4.09-2.62-.64-5.58,1.1-7.92.85-1.86-.19-3.14-1.82-5.75-1.7-3.89.18-2.37,3.16-4.05,4.95-4.66,4.97-1.68-4.55-.41-6.48-3.8.01-5.7-2.57-8.6-3.98-2.33-1.13-6.71-.79-6.81-4.14,3.64-.4,5.95,3.37,8.89-.4l-1.59-3.66,3.78,1.51c5.95-1.85-.91-5.12-1.24-6.9l1.55-4.32,2.4.37.88,6.83,10.52-1.91c.97-.61.95-3.03.82-4.14-.21-1.9-3-4.42-.42-5.2,5.99-1.81,1.78,7.47,2.79,10.51l4.09-.37,5.64-12.98c-.37-1.39-7.05-1.71-8.65-1.75-3.44-.1-8.2,2.03-8.66,1.98-1.81-.17-4.73-.43-6.55-.67-1.98-.26-3.25-2.29-5.35-1.25-1.98.98-3.2,12.55-4,13.07-2.14.48-4.03.37-6.18,1.12-2.95,1.03-5.14,4.43-8.07,4.92-2.43.41.07-1.89-.41-3.25-9.61,1.48-18.52,10.67-24.76,17.83-23.83,27.35-26.93,47.66-35.51,81.33-1.94,7.63-5.21,15.11-6.27,22.94l1.62.41c1.05-4.26,6.62-7.04,8.13-1.62-3.53-2.18-9.52.46-4.85,2.87,2.79,1.44,4.3-2.88,7.28-1.24v-5.68c4.93.64,2.28,6.5,2.53,9.24.5,5.54,3.92,14.23,3.76,18.93-.04,1.23-1.3,1.92-1.41,3.09-.55,5.7,1.04,20.99,1.71,27.48,1.77,17.27,5.74,34.62,7.21,52.01.33,3.91-.43,8.24.08,12.09.4,3.01,2.61,7.16,3.94,2.47s.3-9.98.86-14.97c4.52-.1,2.65,11.58,5.28,12.16,3.3.38,1.43-5.45,4.04-4.86,2.39.54.63,9.36,4.47,8.92,2.67-9.96-.96-19.81-1.61-29.62-.67-10.07.32-19.71-1.7-29.95-1.01-5.12-3.87-10.7-4.59-15.7-.53-3.71.24-9.21-1.19-12.61-.68-1.61-3.27-2.03-3.88-3.43-1.14-2.63,3.96.57,4.06-.81-.33-5.9-1.57-11.89-.08-17.75l-3.17-17.11c2.07-2.82,2.87,1.63,3.16,3.31,1.69,9.72,1.78,19.56,1.84,29.41,4.6,2.17,8.89,1.71,13.87,3.57,4.51,1.68,10.76,6.53,15.11,7.52,1.02.23,2.24-.56,3.34-.4.2,2.55-2.09,2.63-4.05,2.43v-1.62s-1.62,0-1.62,0v1.62c.46.13,1.42-.15,1.62,0ZM171.11,6.34l-9.53-.28-4.26,4.33c2.04.36,3.46-1.3,5.31-1.58,2.86-.44,8.36,1.48,8.48-2.47ZM188.96,55.83c.41-1.85-.98-1.78-2-2.45-3.32-2.2-9.57-4.1-13.46-2.86-2.46.79-4.98,3.82-1.17,4.5,4.55.81,11.65-.26,16.63.81ZM152.4,53.45c-2.55.03-6.3-2.46-6.44,1.56,2.28.75,3.84,2.23,6.49,1.63l-.05-3.19ZM166.65,87.48c2.33.58,9.17,0,12.17,0,1.3,0,10.61-3.27,10.14-5.26-2.67-2.39-19.1-7.14-21.15-5.75-1.42,1.75-.52,4.31-.79,6.51-.18,1.47-2.52,3.96-.37,4.5ZM79.29,199.59c-1.57-.26-3.15-.76-4.77-.6s-8.42,1.53-8.78,2.59c-1.84,5.56,2.69,19.38.89,26.01.17,2.88,4.25,1.98,6.32,1.48,1.53-.37,8.41-3.83,8.79-5-.48-2.52.93-6.72.71-8.7-.11-1.02-1.21-2.05-1.36-3.39-.48-4.11-.31-8.32-1.8-12.4ZM112.7,227.85h-4.06s.79,4.51.79,4.51l3.15-.58.12-3.93ZM123.04,237.37c.42-.42,1.81-3.42,1.48-3.86l-9.39-4.85c-.78.81,3.95,12.7,7.91,8.71ZM78.62,233.53c.32-1.92-.66-2.93-2.03-4.04-1.49,1.64-2.2,2.94-4.46,1.61-.35,2.76,1.27,7.52,4.48,4.88l-.44-2.44h2.45ZM131.35,241.64c-.16-2.95-1.89-4.62-4.86-4.05-.37,3.17,1.99,4.44,4.86,4.05ZM127.19,374.83c-3.47-1.56-6.71-1.41-9.6,1.16-3.46.94-.13-6.84-.09-8.24.08-2.7-1.06-5.21-.66-8.77.51-4.57,3.43-10.42,3.82-15.26-1.33-7.52-5.18-12.19-11.26-16.42-5.58-3.89-17.83-5.11-23.72-1.3-4.3,2.78-12.67,11.81-15.53,16.31-3.06,4.81-1.35,7.89-2.29,13.14-1.54,8.56-2.31,9.17-10.75,8.71-6.11-.33-9.57-.06-15.39.05-10.71.2-20.86-3.74-31.26-5.72-1.09,1.05,3.52,5.73,4.46,6.49,15.5,12.63,41.38,26.51,60.9,30,4.08.73,13.85-1.65,18.01-2.21,7.92-1.06,21.16-1.47,27.4-6.68,2.15-1.8,7.8-8.52,5.96-11.27Z"/><path d="M146.07,208.49c1.86-1.26,12.3,1.94,8.41,5.55l-5.66-3.23c-6.04,4.56,8.28,11.53,10.11,9.73-.51-4.44-1.71-15.97,5.33-13.87,3.76,3.25.42,16.41-3.29,17.13-7.66,1.49-19.1-6.88-14.91-15.31ZM159.76,217.3c.4.42,2.93-.02,3.18-1.32l-.76-4.35c-1.54.19-3.02,5.03-2.42,5.67Z"/><path d="M140.18,233.63l-3.15-1.31c1.86-2.47,4.37-.86,4.84,1.64.73,3.85-1.36,13.73-5.64,8.1,3.34-1.78,4.46-4.65,3.95-8.42Z"/><polygon points="168.67 94.78 168.67 98.02 167.47 98.02 166.26 96.81 167.06 94.78 168.67 94.78"/><path d="M77.8,203.51l-.8,7.57-2.44.54c-.33-1.86,1.11-2.87,1.59-4.49s-1.14-4.22,1.65-3.62Z"/></g></svg>